<svg xmlns="http://www.w3.org/2000/svg" width="25" height="25" viewBox="0 0 25 25" fill="none">
  <path fill-rule="evenodd" clip-rule="evenodd" d="M5.38774 12.4999C5.38774 11.688 5.52251 10.9095 5.76333 10.1794L1.55044 6.9624C0.729346 8.62939 0.266846 10.5079 0.266846 12.4999C0.266846 14.4903 0.728955 16.3675 1.54868 18.0335L5.75923 14.8103C5.52075 14.0835 5.38774 13.3079 5.38774 12.4999Z" fill="#FBBC05"/>
  <path fill-rule="evenodd" clip-rule="evenodd" d="M12.7845 5.11367C14.5483 5.11367 16.1415 5.73867 17.3933 6.76133L21.0347 3.125C18.8157 1.19316 15.9708 0 12.7845 0C7.8376 0 3.58604 2.82891 1.55029 6.9625L5.76299 10.1795C6.73369 7.23301 9.50068 5.11367 12.7845 5.11367Z" fill="#EA4335"/>
  <path fill-rule="evenodd" clip-rule="evenodd" d="M12.7845 19.8861C9.50088 19.8861 6.73389 17.7668 5.76318 14.8203L1.55029 18.0367C3.58604 22.1709 7.8376 24.9998 12.7845 24.9998C15.8376 24.9998 18.7526 23.9156 20.9403 21.8844L16.9415 18.793C15.8132 19.5037 14.3923 19.8861 12.7845 19.8861Z" fill="#34A853"/>
  <path fill-rule="evenodd" clip-rule="evenodd" d="M24.7333 12.5002C24.7333 11.7615 24.6194 10.966 24.4487 10.2275H12.7847V15.057H19.4987C19.163 16.7037 18.2493 17.9695 16.9417 18.7934L20.9405 21.8848C23.2386 19.752 24.7333 16.5746 24.7333 12.5002Z" fill="#4285F4"/>
</svg>