<svg width="352" height="57" viewBox="0 0 352 57" fill="none" xmlns="http://www.w3.org/2000/svg">
<path d="M283.069 7.70556V23.9073C283.069 25.6527 283.52 26.9326 284.422 27.7416C285.335 28.5561 286.538 28.9606 288.03 28.9606H293.507V30.9775H254.889V28.9606H260.43C261.918 28.9606 263.115 28.5561 264.017 27.7416C264.919 26.9326 265.37 25.6527 265.37 23.9073V7.70556C265.37 6.30371 264.882 5.09024 263.91 4.07071C262.949 3.05118 261.789 2.54141 260.43 2.54141H254.889V0.546672H293.507V2.54141H288.03C286.666 2.54141 285.501 3.05118 284.529 4.07071C283.552 5.09024 283.069 6.30371 283.069 7.70556ZM271.363 28.9606V2.54141H268.42V28.9606H271.363Z" fill="white"/>
<path d="M352 28.9606V30.9775H317.914V28.9606H321.286C322.07 28.9606 322.714 28.7833 323.219 28.4287C323.718 28.074 323.971 27.5366 323.971 26.8107C323.971 26.0904 323.525 25.1651 322.639 24.0402L320.964 21.8904H300.86C299.984 23.2978 299.549 24.5389 299.549 25.6139C299.549 26.6944 299.861 27.52 300.495 28.0962C301.123 28.6725 301.939 28.9606 302.943 28.9606H307.174V30.9775H287.371V28.9606C288.316 28.9606 289.304 28.7279 290.335 28.2514C291.366 27.7638 292.268 27.182 293.041 26.5004C293.825 25.8078 294.55 25.0986 295.211 24.3727C295.882 23.6524 296.392 23.0595 296.736 22.5996C297.09 22.1286 297.273 21.8793 297.273 21.846L308.936 6.53088L307.797 5.09024C307.078 4.17599 306.321 3.5277 305.52 3.13983C304.715 2.74088 303.614 2.54141 302.213 2.54141H298.626V0.546672H324.593L346.824 28.9606H352ZM302.578 19.6518H319.245L310.718 8.76942L302.578 19.6518ZM330.135 28.9606H333.636L312.974 2.54141H309.473L330.135 28.9606Z" fill="white"/>
<path d="M0.386613 56.7562C0.128871 56.7562 0 56.6232 0 56.3572V41.0199C0 40.7706 0.128871 40.6432 0.386613 40.6432H2.77073C2.9694 40.6432 3.11975 40.7263 3.22178 40.887L6.46503 46.2727C6.49188 46.3171 6.51873 46.3392 6.55095 46.3392C6.59391 46.3392 6.62075 46.3171 6.63686 46.2727L9.92308 40.887C10.0197 40.7263 10.1701 40.6432 10.3741 40.6432H12.7582C12.9999 40.6432 13.1234 40.7706 13.1234 41.0199V56.3572C13.1234 56.6232 12.9999 56.7562 12.7582 56.7562H10.3741C10.1164 56.7562 9.98751 56.6232 9.98751 56.3572V46.3836C9.98751 46.3281 9.96603 46.2894 9.92308 46.2727C9.89086 46.2617 9.86401 46.2838 9.83716 46.3392L7.58192 50.1514C7.46379 50.3176 7.31344 50.3952 7.13087 50.3952H5.99251C5.78846 50.3952 5.63811 50.3176 5.54146 50.1514L3.30769 46.3392C3.27547 46.2838 3.24326 46.2617 3.2003 46.2727C3.16808 46.2894 3.15734 46.3281 3.15734 46.3836V56.3572C3.15734 56.6232 3.02847 56.7562 2.77073 56.7562H0.386613Z" fill="#D2AE6D"/>
<path d="M28.9269 43.0368C28.9269 43.2917 28.8034 43.4136 28.5618 43.4136H21.3665C21.2805 43.4136 21.2376 43.469 21.2376 43.5688V47.0928C21.2376 47.1815 21.2805 47.2258 21.3665 47.2258H26.0273C26.285 47.2258 26.4139 47.3588 26.4139 47.6247V49.6195C26.4139 49.8854 26.285 50.0184 26.0273 50.0184H21.3665C21.2805 50.0184 21.2376 50.0627 21.2376 50.1514V53.8306C21.2376 53.9192 21.2805 53.9636 21.3665 53.9636H28.5618C28.8034 53.9636 28.9269 54.0965 28.9269 54.3625V56.3572C28.9269 56.6232 28.8034 56.7562 28.5618 56.7562H18.4669C18.2091 56.7562 18.0802 56.6232 18.0802 56.3572V41.0199C18.0802 40.7706 18.2091 40.6432 18.4669 40.6432H28.5618C28.8034 40.6432 28.9269 40.7706 28.9269 41.0199V43.0368Z" fill="#D2AE6D"/>
<path d="M33.7339 56.7562C33.4762 56.7562 33.3473 56.6232 33.3473 56.3572V41.0199C33.3473 40.7706 33.4762 40.6432 33.7339 40.6432H36.1181C36.3758 40.6432 36.5047 40.7706 36.5047 41.0199V53.8306C36.5047 53.9192 36.5476 53.9636 36.6335 53.9636H43.8074C44.049 53.9636 44.1725 54.0965 44.1725 54.3625V56.3572C44.1725 56.6232 44.049 56.7562 43.8074 56.7562H33.7339Z" fill="#D2AE6D"/>
<path d="M56.6589 41.0199C56.6589 40.7706 56.7878 40.6432 57.0455 40.6432H59.4296C59.6712 40.6432 59.7947 40.7706 59.7947 41.0199V56.3572C59.7947 56.6232 59.6712 56.7562 59.4296 56.7562H57.0455C56.7878 56.7562 56.6589 56.6232 56.6589 56.3572V50.1514C56.6589 50.0627 56.6159 50.0184 56.53 50.0184H51.6329C51.547 50.0184 51.504 50.0627 51.504 50.1514V56.3572C51.504 56.6232 51.3752 56.7562 51.1174 56.7562H48.7333C48.4756 56.7562 48.3467 56.6232 48.3467 56.3572V41.0199C48.3467 40.7706 48.4756 40.6432 48.7333 40.6432H51.1174C51.3752 40.6432 51.504 40.7706 51.504 41.0199V47.0928C51.504 47.1815 51.547 47.2258 51.6329 47.2258H56.53C56.6159 47.2258 56.6589 47.1815 56.6589 47.0928V41.0199Z" fill="#D2AE6D"/>
<path d="M70.1588 57C68.9989 57 67.9733 56.7562 67.0873 56.2686C66.196 55.781 65.5087 55.0939 65.0254 54.2074C64.5368 53.3208 64.2951 52.3124 64.2951 51.1709V46.2284C64.2951 45.0925 64.5368 44.0896 65.0254 43.2142C65.5087 42.3442 66.196 41.6627 67.0873 41.1751C67.9733 40.6875 68.9989 40.4437 70.1588 40.4437C71.3293 40.4437 72.3603 40.6875 73.2517 41.1751C74.1377 41.6627 74.825 42.3442 75.3136 43.2142C75.7969 44.0896 76.0439 45.0925 76.0439 46.2284V51.1709C76.0439 52.3124 75.7969 53.3319 75.3136 54.2295C74.825 55.1161 74.1377 55.8032 73.2517 56.2908C72.3603 56.7617 71.3293 57 70.1588 57ZM70.1588 54.2295C70.975 54.2295 71.63 53.9636 72.1348 53.4316C72.6503 52.8886 72.908 52.1683 72.908 51.2818V46.2063C72.908 45.3197 72.6556 44.6049 72.1563 44.0564C71.6515 43.5134 70.9857 43.2363 70.1588 43.2363C69.3426 43.2363 68.6821 43.5134 68.1827 44.0564C67.678 44.6049 67.431 45.3197 67.431 46.2063V51.2818C67.431 52.1683 67.678 52.8886 68.1827 53.4316C68.6821 53.9636 69.3426 54.2295 70.1588 54.2295Z" fill="#D2AE6D"/>
<path d="M89.366 56.7562C89.162 56.7562 89.0116 56.6564 88.915 56.4459L86.1657 50.1957C86.1335 50.1237 86.0852 50.0849 86.0154 50.0849H83.9749C83.889 50.0849 83.8461 50.1292 83.8461 50.2179V56.3572C83.8461 56.6232 83.7172 56.7562 83.4594 56.7562H81.0753C80.8176 56.7562 80.6887 56.6232 80.6887 56.3572V40.9977C80.6887 40.7484 80.8176 40.621 81.0753 40.621H87.3471C88.2921 40.621 89.119 40.8315 89.8386 41.2415C90.5688 41.6405 91.1273 42.2112 91.5139 42.9482C91.9112 43.674 92.1153 44.5162 92.1153 45.4748C92.1153 46.5276 91.8629 47.4252 91.3635 48.1788C90.8588 48.9213 90.1607 49.4421 89.2586 49.7524C89.2157 49.769 89.1835 49.7968 89.1727 49.8411C89.1566 49.8743 89.162 49.902 89.1942 49.9297L92.1368 56.2907C92.1905 56.3517 92.2227 56.4237 92.2227 56.5124C92.2227 56.5899 92.1851 56.6453 92.1153 56.6897C92.0562 56.734 91.9757 56.7562 91.879 56.7562H89.366ZM83.9749 43.4136C83.889 43.4136 83.8461 43.469 83.8461 43.5687V47.4252C83.8461 47.5139 83.889 47.5582 83.9749 47.5582H86.8745C87.5028 47.5582 88.0129 47.3754 88.3995 47.0041C88.7969 46.6384 89.0009 46.1397 89.0009 45.5191C89.0009 44.8986 88.7969 44.3999 88.3995 44.012C88.0129 43.6131 87.5028 43.4136 86.8745 43.4136H83.9749Z" fill="#D2AE6D"/>
<path d="M113.374 56.7562C113.159 56.7562 113.014 56.6454 112.944 56.4237L112.321 54.296C112.305 54.224 112.262 54.1852 112.192 54.1852H106.715C106.64 54.1852 106.597 54.224 106.586 54.296L105.964 56.4237C105.888 56.6454 105.749 56.7562 105.534 56.7562H102.957C102.812 56.7562 102.71 56.7229 102.656 56.6454C102.597 56.5567 102.591 56.4459 102.634 56.3129L107.381 40.9534C107.467 40.7484 107.607 40.6432 107.811 40.6432H111.097C111.296 40.6432 111.441 40.7484 111.527 40.9534L116.273 56.3129C116.284 56.3462 116.295 56.3905 116.295 56.4459C116.295 56.5512 116.263 56.6343 116.209 56.6897C116.15 56.734 116.064 56.7562 115.951 56.7562H113.374ZM107.36 51.5034C107.344 51.6087 107.387 51.6585 107.489 51.6585H111.441C111.527 51.6585 111.559 51.6087 111.548 51.5034L109.529 44.4775C109.513 44.4221 109.486 44.3888 109.443 44.3888C109.411 44.3888 109.384 44.4221 109.357 44.4775L107.36 51.5034Z" fill="#D2AE6D"/>
<path d="M120.939 56.7562C120.681 56.7562 120.552 56.6232 120.552 56.3572V41.0199C120.552 40.7706 120.681 40.6432 120.939 40.6432H123.323C123.522 40.6432 123.672 40.7263 123.774 40.887L127.017 46.2727C127.044 46.3171 127.071 46.3392 127.103 46.3392C127.146 46.3392 127.173 46.3171 127.189 46.2727L130.475 40.887C130.572 40.7263 130.722 40.6432 130.926 40.6432H133.31C133.552 40.6432 133.675 40.7706 133.675 41.0199V56.3572C133.675 56.6232 133.552 56.7562 133.31 56.7562H130.926C130.668 56.7562 130.54 56.6232 130.54 56.3572V46.3836C130.54 46.3281 130.518 46.2894 130.475 46.2727C130.443 46.2617 130.416 46.2838 130.389 46.3392L128.134 50.1514C128.016 50.3176 127.866 50.3952 127.683 50.3952H126.545C126.341 50.3952 126.19 50.3176 126.094 50.1514L123.86 46.3392C123.828 46.2838 123.795 46.2617 123.752 46.2727C123.72 46.2894 123.709 46.3281 123.709 46.3836V56.3572C123.709 56.6232 123.581 56.7562 123.323 56.7562H120.939Z" fill="#D2AE6D"/>
<path d="M139.019 56.7562C138.761 56.7562 138.632 56.6232 138.632 56.3572V41.0199C138.632 40.7706 138.761 40.6432 139.019 40.6432H141.403C141.661 40.6432 141.79 40.7706 141.79 41.0199V56.3572C141.79 56.6232 141.661 56.7562 141.403 56.7562H139.019Z" fill="#D2AE6D"/>
<path d="M152.233 56.9335C151.084 56.9335 150.069 56.7008 149.183 56.2243C148.308 55.7533 147.626 55.0939 147.143 54.2517C146.67 53.3984 146.434 52.4066 146.434 51.2818V46.1176C146.434 44.9983 146.67 44.0065 147.143 43.1477C147.626 42.2944 148.308 41.6294 149.183 41.1529C150.069 40.6819 151.084 40.4437 152.233 40.4437C153.361 40.4437 154.365 40.6819 155.24 41.1529C156.11 41.6128 156.787 42.2389 157.259 43.0368C157.743 43.8237 157.99 44.6936 157.99 45.6522V45.6965C157.99 45.9625 157.861 46.0954 157.603 46.0954H155.219C155.101 46.0954 155.009 46.0844 154.94 46.0511C154.881 46.0068 154.854 45.9625 154.854 45.9181V45.7408C154.854 45.0482 154.607 44.4553 154.123 43.9677C153.651 43.4801 153.017 43.2363 152.233 43.2363C151.428 43.2363 150.783 43.4967 150.3 44.012C149.812 44.5329 149.57 45.2033 149.57 46.0289V51.3704C149.57 52.2015 149.828 52.872 150.343 53.3873C150.869 53.9082 151.535 54.163 152.341 54.163C153.114 54.163 153.726 53.9525 154.188 53.5203C154.66 53.0936 154.897 52.5118 154.897 51.7694V50.7498C154.897 50.6612 154.843 50.6168 154.746 50.6168H152.384C152.137 50.6168 152.019 50.4839 152.019 50.2179V48.334C152.019 48.068 152.137 47.935 152.384 47.935H157.603C157.861 47.935 157.99 48.068 157.99 48.334V51.2596C157.99 52.4287 157.753 53.4427 157.281 54.296C156.808 55.1549 156.132 55.8142 155.262 56.2686C154.387 56.7119 153.377 56.9335 152.233 56.9335Z" fill="#D2AE6D"/>
<path d="M172.567 56.7562C172.352 56.7562 172.208 56.6454 172.138 56.4237L171.515 54.296C171.499 54.224 171.456 54.1852 171.386 54.1852H165.909C165.834 54.1852 165.791 54.224 165.78 54.296L165.157 56.4237C165.082 56.6454 164.942 56.7562 164.728 56.7562H162.15C162.005 56.7562 161.903 56.7229 161.85 56.6454C161.79 56.5567 161.785 56.4459 161.828 56.3129L166.575 40.9534C166.661 40.7484 166.8 40.6432 167.004 40.6432H170.291C170.489 40.6432 170.634 40.7484 170.72 40.9534L175.467 56.3129C175.478 56.3462 175.488 56.3905 175.488 56.4459C175.488 56.5512 175.456 56.6343 175.402 56.6897C175.343 56.734 175.257 56.7562 175.145 56.7562H172.567ZM166.553 51.5034C166.537 51.6087 166.58 51.6585 166.682 51.6585H170.634C170.72 51.6585 170.752 51.6087 170.742 51.5034L168.723 44.4775C168.707 44.4221 168.68 44.3888 168.637 44.3888C168.604 44.3888 168.578 44.4221 168.551 44.4775L166.553 51.5034Z" fill="#D2AE6D"/>
<path d="M186.807 56.7562C186.549 56.7562 186.421 56.6232 186.421 56.3572V41.0199C186.421 40.7706 186.549 40.6432 186.807 40.6432H192.284C193.401 40.6432 194.373 40.8537 195.205 41.2637C196.048 41.6627 196.698 42.2334 197.16 42.9703C197.616 43.7128 197.847 44.5606 197.847 45.5192V51.8802C197.847 52.8443 197.616 53.6921 197.16 54.429C196.698 55.1715 196.048 55.7477 195.205 56.1578C194.373 56.5567 193.401 56.7562 192.284 56.7562H186.807ZM189.578 53.8306C189.578 53.9192 189.621 53.9636 189.707 53.9636H192.392C193.079 53.9636 193.627 53.7308 194.045 53.2543C194.475 52.7833 194.695 52.1461 194.711 51.3482V46.0511C194.711 45.2532 194.496 44.6215 194.067 44.145C193.648 43.6574 193.084 43.4136 192.37 43.4136H189.707C189.621 43.4136 189.578 43.469 189.578 43.5688V53.8306Z" fill="#D2AE6D"/>
<path d="M208.009 57C206.85 57 205.824 56.7562 204.938 56.2686C204.047 55.781 203.359 55.0939 202.876 54.2074C202.387 53.3208 202.146 52.3124 202.146 51.1709V46.2284C202.146 45.0925 202.387 44.0896 202.876 43.2142C203.359 42.3442 204.047 41.6627 204.938 41.1751C205.824 40.6875 206.85 40.4437 208.009 40.4437C209.18 40.4437 210.211 40.6875 211.102 41.1751C211.988 41.6627 212.676 42.3442 213.164 43.2142C213.648 44.0896 213.895 45.0925 213.895 46.2284V51.1709C213.895 52.3124 213.648 53.3319 213.164 54.2295C212.676 55.1161 211.988 55.8032 211.102 56.2908C210.211 56.7617 209.18 57 208.009 57ZM208.009 54.2295C208.826 54.2295 209.481 53.9636 209.985 53.4316C210.501 52.8886 210.759 52.1683 210.759 51.2818V46.2063C210.759 45.3197 210.506 44.6049 210.007 44.0564C209.502 43.5134 208.836 43.2363 208.009 43.2363C207.193 43.2363 206.533 43.5134 206.033 44.0564C205.529 44.6049 205.282 45.3197 205.282 46.2063V51.2818C205.282 52.1683 205.529 52.8886 206.033 53.4316C206.533 53.9636 207.193 54.2295 208.009 54.2295Z" fill="#D2AE6D"/>
<path d="M235.288 56.7562C235.073 56.7562 234.928 56.6454 234.858 56.4237L234.235 54.296C234.219 54.224 234.176 54.1852 234.106 54.1852H228.629C228.554 54.1852 228.511 54.224 228.5 54.296L227.878 56.4237C227.802 56.6454 227.663 56.7562 227.448 56.7562H224.871C224.726 56.7562 224.624 56.7229 224.57 56.6454C224.511 56.5567 224.505 56.4459 224.548 56.3129L229.295 40.9534C229.381 40.7484 229.521 40.6432 229.725 40.6432H233.011C233.21 40.6432 233.355 40.7484 233.44 40.9534L238.187 56.3129C238.198 56.3462 238.209 56.3905 238.209 56.4459C238.209 56.5512 238.176 56.6343 238.123 56.6897C238.064 56.734 237.978 56.7562 237.865 56.7562H235.288ZM229.274 51.5034C229.258 51.6087 229.3 51.6585 229.402 51.6585H233.355C233.44 51.6585 233.473 51.6087 233.462 51.5034L231.443 44.4775C231.427 44.4221 231.4 44.3888 231.357 44.3888C231.325 44.3888 231.298 44.4221 231.271 44.4775L229.274 51.5034Z" fill="#D2AE6D"/>
<path d="M242.831 56.7562C242.574 56.7562 242.445 56.6232 242.445 56.3572V41.0199C242.445 40.7706 242.574 40.6432 242.831 40.6432H248.308C249.425 40.6432 250.397 40.8537 251.229 41.2637C252.072 41.6627 252.722 42.2334 253.184 42.9703C253.64 43.7128 253.871 44.5606 253.871 45.5192V51.8802C253.871 52.8443 253.64 53.6921 253.184 54.429C252.722 55.1715 252.072 55.7477 251.229 56.1578C250.397 56.5567 249.425 56.7562 248.308 56.7562H242.831ZM245.602 53.8306C245.602 53.9192 245.645 53.9636 245.731 53.9636H248.416C249.103 53.9636 249.651 53.7308 250.07 53.2543C250.499 52.7833 250.719 52.1461 250.735 51.3482V46.0511C250.735 45.2532 250.521 44.6215 250.091 44.145C249.672 43.6574 249.108 43.4136 248.394 43.4136H245.731C245.645 43.4136 245.602 43.469 245.602 43.5688V53.8306Z" fill="#D2AE6D"/>
<path d="M262.745 56.7562C262.53 56.7562 262.385 56.6454 262.315 56.4237L257.783 41.0643C257.767 41.0366 257.762 40.9922 257.762 40.9313C257.762 40.7429 257.875 40.6432 258.106 40.6432H260.683C260.898 40.6432 261.037 40.7484 261.113 40.9534L264.034 52.0575C264.044 52.1184 264.077 52.1461 264.12 52.1461C264.162 52.1461 264.189 52.1184 264.205 52.0575L267.084 40.9756C267.169 40.754 267.309 40.6432 267.513 40.6432H270.048C270.176 40.6432 270.268 40.6875 270.327 40.7761C270.381 40.8537 270.391 40.9479 270.348 41.0643L265.752 56.4237C265.677 56.6454 265.537 56.7562 265.322 56.7562H262.745Z" fill="#D2AE6D"/>
<path d="M280.149 57C278.989 57 277.963 56.7562 277.077 56.2686C276.186 55.781 275.499 55.0939 275.015 54.2074C274.527 53.3208 274.285 52.3124 274.285 51.1709V46.2284C274.285 45.0925 274.527 44.0896 275.015 43.2142C275.499 42.3442 276.186 41.6627 277.077 41.1751C277.963 40.6875 278.989 40.4437 280.149 40.4437C281.319 40.4437 282.35 40.6875 283.242 41.1751C284.128 41.6627 284.815 42.3442 285.304 43.2142C285.787 44.0896 286.034 45.0925 286.034 46.2284V51.1709C286.034 52.3124 285.787 53.3319 285.304 54.2295C284.815 55.1161 284.128 55.8032 283.242 56.2908C282.35 56.7617 281.319 57 280.149 57ZM280.149 54.2295C280.965 54.2295 281.62 53.9636 282.125 53.4316C282.64 52.8886 282.898 52.1683 282.898 51.2818V46.2063C282.898 45.3197 282.646 44.6049 282.146 44.0564C281.642 43.5134 280.976 43.2363 280.149 43.2363C279.333 43.2363 278.672 43.5134 278.173 44.0564C277.668 44.6049 277.421 45.3197 277.421 46.2063V51.2818C277.421 52.1683 277.668 52.8886 278.173 53.4316C278.672 53.9636 279.333 54.2295 280.149 54.2295Z" fill="#D2AE6D"/>
<path d="M296.177 56.9335C295.028 56.9335 294.013 56.7008 293.127 56.2243C292.252 55.7533 291.57 55.0939 291.087 54.2517C290.614 53.3984 290.378 52.4066 290.378 51.2818V46.1176C290.378 44.9983 290.614 44.0065 291.087 43.1477C291.57 42.2944 292.252 41.6294 293.127 41.1529C294.013 40.6819 295.028 40.4437 296.177 40.4437C297.305 40.4437 298.309 40.6819 299.184 41.1529C300.054 41.6128 300.731 42.2389 301.203 43.0368C301.687 43.8237 301.934 44.6936 301.934 45.6522V45.6965C301.934 45.9625 301.805 46.0954 301.547 46.0954H299.163C299.045 46.0954 298.953 46.0844 298.884 46.0511C298.825 46.0068 298.798 45.9625 298.798 45.9181V45.7408C298.798 45.0482 298.551 44.4553 298.067 43.9677C297.595 43.4801 296.961 43.2363 296.177 43.2363C295.372 43.2363 294.727 43.4967 294.244 44.012C293.756 44.5329 293.514 45.2033 293.514 46.0289V51.3704C293.514 52.2015 293.772 52.872 294.287 53.3873C294.813 53.9082 295.479 54.163 296.285 54.163C297.058 54.163 297.67 53.9525 298.132 53.5203C298.604 53.0936 298.841 52.5118 298.841 51.7694V50.7498C298.841 50.6612 298.787 50.6168 298.69 50.6168H296.328C296.081 50.6168 295.962 50.4839 295.962 50.2179V48.334C295.962 48.068 296.081 47.935 296.328 47.935H301.547C301.805 47.935 301.934 48.068 301.934 48.334V51.2596C301.934 52.4287 301.697 53.4427 301.225 54.296C300.752 55.1549 300.076 55.8142 299.206 56.2686C298.331 56.7119 297.321 56.9335 296.177 56.9335Z" fill="#D2AE6D"/>
<path d="M316.511 56.7562C316.297 56.7562 316.152 56.6454 316.082 56.4237L315.459 54.296C315.443 54.224 315.4 54.1852 315.33 54.1852H309.853C309.778 54.1852 309.735 54.224 309.724 54.296L309.101 56.4237C309.026 56.6454 308.886 56.7562 308.672 56.7562H306.094C305.949 56.7562 305.847 56.7229 305.794 56.6454C305.734 56.5567 305.729 56.4459 305.772 56.3129L310.519 40.9534C310.605 40.7484 310.744 40.6432 310.948 40.6432H314.235C314.433 40.6432 314.578 40.7484 314.664 40.9534L319.411 56.3129C319.422 56.3462 319.432 56.3905 319.432 56.4459C319.432 56.5512 319.4 56.6343 319.346 56.6897C319.287 56.734 319.201 56.7562 319.089 56.7562H316.511ZM310.497 51.5034C310.481 51.6087 310.524 51.6585 310.626 51.6585H314.578C314.664 51.6585 314.696 51.6087 314.686 51.5034L312.667 44.4775C312.651 44.4221 312.624 44.3888 312.581 44.3888C312.549 44.3888 312.522 44.4221 312.495 44.4775L310.497 51.5034Z" fill="#D2AE6D"/>
<path d="M324.055 56.7562C323.797 56.7562 323.668 56.6232 323.668 56.3572V41.0199C323.668 40.7706 323.797 40.6432 324.055 40.6432H329.532C330.649 40.6432 331.621 40.8537 332.453 41.2637C333.296 41.6627 333.946 42.2334 334.408 42.9703C334.864 43.7128 335.095 44.5606 335.095 45.5192V51.8802C335.095 52.8443 334.864 53.6921 334.408 54.429C333.946 55.1715 333.296 55.7477 332.453 56.1578C331.621 56.5567 330.649 56.7562 329.532 56.7562H324.055ZM326.826 53.8306C326.826 53.9192 326.869 53.9636 326.954 53.9636H329.639C330.327 53.9636 330.874 53.7308 331.293 53.2543C331.723 52.7833 331.943 52.1461 331.959 51.3482V46.0511C331.959 45.2532 331.744 44.6215 331.315 44.145C330.896 43.6574 330.332 43.4136 329.618 43.4136H326.954C326.869 43.4136 326.826 43.469 326.826 43.5688V53.8306Z" fill="#D2AE6D"/>
<path d="M345.257 57C344.097 57 343.072 56.7562 342.186 56.2686C341.294 55.781 340.607 55.0939 340.124 54.2074C339.635 53.3208 339.394 52.3124 339.394 51.1709V46.2284C339.394 45.0925 339.635 44.0896 340.124 43.2142C340.607 42.3442 341.294 41.6627 342.186 41.1751C343.072 40.6875 344.097 40.4437 345.257 40.4437C346.428 40.4437 347.459 40.6875 348.35 41.1751C349.236 41.6627 349.923 42.3442 350.412 43.2142C350.895 44.0896 351.142 45.0925 351.142 46.2284V51.1709C351.142 52.3124 350.895 53.3319 350.412 54.2295C349.923 55.1161 349.236 55.8032 348.35 56.2908C347.459 56.7617 346.428 57 345.257 57ZM345.257 54.2295C346.073 54.2295 346.728 53.9636 347.233 53.4316C347.749 52.8886 348.006 52.1683 348.006 51.2818V46.2063C348.006 45.3197 347.754 44.6049 347.255 44.0564C346.75 43.5134 346.084 43.2363 345.257 43.2363C344.441 43.2363 343.781 43.5134 343.281 44.0564C342.776 44.6049 342.529 45.3197 342.529 46.2063V51.2818C342.529 52.1683 342.776 52.8886 343.281 53.4316C343.781 53.9636 344.441 54.2295 345.257 54.2295Z" fill="#D2AE6D"/>
<path d="M26.0423 23.6265V6.84859H23.4219V29.6772C25.167 28.9403 26.0423 26.9234 26.0423 23.6265ZM11.3295 5.05333H45.0508V6.84859H41.0128C39.6382 6.84859 38.5535 7.30295 37.7695 8.20058C36.9802 9.08713 36.5882 10.1842 36.5882 11.4808V24.1141C36.5882 25.6102 36.309 26.8957 35.7506 27.9706C35.1921 29.0511 34.2578 30.0097 32.9583 30.8519C30.3809 32.4754 25.9617 33.2899 19.7061 33.2899C13.4451 33.2899 7.77478 32.2649 2.69511 30.2092V32.3591H0.69761V21.3437H2.69511C3.02266 22.1582 3.66165 23.2387 4.6067 24.5796C5.5625 25.926 6.52366 27.0508 7.48482 27.9485C8.44062 28.8517 9.70785 29.6662 11.2865 30.3865C12.8598 31.1124 14.4116 31.4725 15.9474 31.4725C19.1101 31.4725 20.6941 29.9598 20.6941 26.9289V11.4808C20.6941 10.1842 20.2914 9.08713 19.4913 8.20058C18.702 7.30295 17.6281 6.84859 16.2695 6.84859H11.3295V5.05333Z" fill="white"/>
<path d="M73.1207 8.90983H89.1007V10.7273C87.1945 10.7273 85.6212 11.104 84.3755 11.8576C82.8988 12.7331 82.1632 14.6225 82.1632 17.5315V25.178C82.1632 27.6936 81.6101 29.4445 80.5093 30.4308C79.0917 31.7163 77.2553 32.5586 75.0108 32.9575C73.5932 33.1791 71.6494 33.29 69.1901 33.29C66.7416 33.29 64.4219 33.1182 62.2311 32.7802C60.051 32.4366 58.4079 32.0432 57.291 31.5833C56.1741 31.129 55.2989 30.5361 54.6707 29.8102C54.0531 29.0733 53.6826 28.4361 53.5538 27.9042C53.4356 27.3722 53.3819 26.7461 53.3819 26.0202V14.4064C53.3819 11.9573 52.1684 10.7273 49.7521 10.7273H48.2915V8.90983H71.3809V10.7273H70.7366C68.3149 10.7273 67.1067 11.9573 67.1067 14.4064V26.4414C67.1067 28.2034 67.4074 29.5 68.0088 30.3422C68.6209 31.1844 69.6251 31.6055 71.0158 31.6055C74.3235 31.6055 76.5895 31.129 77.8245 30.1649C79.0702 29.1897 79.6931 27.8598 79.6931 26.1754V17.5315C79.6931 16.102 79.4569 14.894 78.9843 13.9188C78.5225 12.9326 77.9158 12.2289 77.1587 11.8133C75.827 11.093 74.4792 10.7273 73.1207 10.7273V8.90983ZM57.9354 10.7273H55.9379V24.9121C55.9379 26.6852 56.3728 27.9651 57.2481 28.7464C57.4306 28.9126 57.6615 29.0511 57.9354 29.1675V10.7273Z" fill="white"/>
<path d="M145.422 30.5416V32.3591H124.738L117.779 23.1611C117.075 22.2025 116.49 21.7205 116.018 21.7205C115.556 21.7205 115.287 21.8867 115.201 22.2081C115.126 22.535 115.094 23.1833 115.094 24.1585V26.8181C115.094 29.3005 116.302 30.5416 118.724 30.5416H121.366V32.3591H93.3362V30.5416H97.6534C100.102 30.5416 101.326 29.3005 101.326 26.8181V14.4951C101.326 13.4645 100.966 12.5779 100.252 11.8354C99.5328 11.0985 98.6683 10.7272 97.6534 10.7272H93.3362V8.90981C114.24 8.88211 126.676 8.86549 130.644 8.86549C138.849 8.86549 142.952 11.0819 142.952 15.5146C142.952 16.7724 142.565 17.8307 141.792 18.684C141.019 19.5429 139.923 20.1801 138.506 20.5901C136.111 21.2716 133.19 21.6318 129.742 21.6761V21.9421C130.312 22.4463 131.214 22.9561 132.449 23.4714C133.694 23.9922 135.09 24.3746 136.637 24.6239L141.233 30.5416H145.422ZM103.861 30.5416H105.923V10.7272H103.861V30.5416ZM115.094 12.4338V17.4872C115.094 18.0801 115.642 18.5898 116.748 19.0165C117.865 19.4487 119.18 19.6592 120.7 19.6592C122.23 19.6592 123.546 19.3268 124.652 18.6619C125.769 17.9859 126.327 16.8888 126.327 15.3816C126.327 13.8745 125.71 12.722 124.48 11.9241C123.245 11.1262 122.015 10.7272 120.786 10.7272H116.726C116.254 10.7272 115.856 10.899 115.545 11.237C115.244 11.5639 115.094 11.9629 115.094 12.4338ZM119.776 21.7205L126.456 30.5416H129.012C126.091 26.6297 123.879 23.6875 122.375 21.7205H119.776ZM131.095 18.2851C131.665 17.4151 131.955 16.5064 131.955 15.5589C131.955 14.6004 131.665 13.6916 131.095 12.8328C130.521 11.9629 129.828 11.3423 129.012 10.971L128.862 11.104C129.447 12.2011 129.742 13.6861 129.742 15.5589C129.742 17.4373 129.447 18.9223 128.862 20.0138L129.012 20.1247C129.828 19.77 130.521 19.1605 131.095 18.2851Z" fill="white"/>
<path d="M171.707 26.8625C171.707 29.3171 172.931 30.5416 175.38 30.5416H179.697V32.3591H149.992V30.5416H154.309C156.758 30.5416 157.982 29.3171 157.982 26.8625V14.4951C157.982 13.4922 157.622 12.6112 156.908 11.8576C156.189 11.104 155.324 10.7273 154.309 10.7273H149.992V8.90983H179.697V10.7273H175.38C174.359 10.7273 173.495 11.104 172.781 11.8576C172.061 12.6112 171.707 13.4922 171.707 14.4951V26.8625ZM162.578 10.7273H160.516V30.5416H162.578V10.7273ZM155.942 6.13936H153.751V4.63222C156.715 4.63222 158.932 4.27206 160.409 3.5462C161.88 2.80926 163.18 1.62904 164.297 0H176.153C176.067 0.371243 175.857 0.853303 175.53 1.44064C175.197 2.0169 174.832 2.53775 174.435 2.99211C174.032 3.43538 173.447 3.89528 172.673 4.36626C171.911 4.82616 171.062 5.16415 170.117 5.38579C167.996 5.89002 163.271 6.13936 155.942 6.13936ZM161.805 4.32193V4.49924C164.925 4.33855 167.164 3.23037 168.528 1.17468H165.929C165.596 1.88392 165.016 2.52667 164.189 3.10292C163.357 3.6681 162.562 4.07259 161.805 4.32193Z" fill="white"/>
<path d="M186.841 8.90983H213.389C219.113 8.90983 223.988 9.75205 228.016 11.4365C230.077 12.2787 231.71 13.4534 232.913 14.9605C234.115 16.4566 234.717 18.1854 234.717 20.1469C234.717 22.0973 234.277 23.8205 233.407 25.311C232.547 26.7904 231.474 27.9651 230.185 28.835C228.896 29.7105 227.398 30.4087 225.696 30.9406C222.785 31.8881 219.73 32.3591 216.525 32.3591H186.841V30.5416H191.115C193.548 30.5416 194.767 29.3005 194.767 26.8181V14.4508C194.767 13.4479 194.407 12.5779 193.693 11.8354C192.973 11.0985 192.114 10.7273 191.115 10.7273H186.841V8.90983ZM199.342 30.586V10.7273H197.344V30.586H199.342ZM211.262 30.5416H214.398C215.73 30.5416 216.831 30.054 217.706 29.0788C219.279 27.3501 220.068 24.5519 220.068 20.6788C220.068 14.0463 217.523 10.7273 212.444 10.7273C211.225 10.7273 210.253 11.0376 209.523 11.6581C208.803 12.2676 208.449 13.0711 208.449 14.074V27.0619C208.449 29.3836 209.383 30.5416 211.262 30.5416ZM224.536 26.264C225.465 24.5353 225.932 22.6735 225.932 20.6788C225.932 18.684 225.465 16.8334 224.536 15.1157C223.618 13.3869 222.313 12.0349 220.627 11.0597L220.477 11.1705C222.394 13.7859 223.355 16.9553 223.355 20.6788C223.355 24.4023 222.394 27.5662 220.477 30.1649L220.627 30.2978C222.313 29.3226 223.618 27.9817 224.536 26.264Z" fill="white"/>
</svg>
