<svg xmlns="http://www.w3.org/2000/svg" width="176" height="17" viewBox="0 0 176 17" fill="none">
  <path d="M141.18 4.37407V12.1852C141.18 13.0267 141.405 13.6438 141.853 14.0339C142.307 14.4266 142.906 14.6216 143.649 14.6216H146.373V15.594H127.161V14.6216H129.918C130.657 14.6216 131.253 14.4266 131.702 14.0339C132.151 13.6438 132.375 13.0267 132.375 12.1852V4.37407C132.375 3.69821 132.132 3.11317 131.649 2.62163C131.17 2.13009 130.593 1.88432 129.918 1.88432H127.161V0.92262H146.373V1.88432H143.649C142.97 1.88432 142.39 2.13009 141.907 2.62163C141.421 3.11317 141.18 3.69821 141.18 4.37407ZM135.356 14.6216V1.88432H133.893V14.6216H135.356Z" fill="white"/>
  <path d="M175.474 14.6216V15.594H158.516V14.6216H160.193C160.583 14.6216 160.904 14.5361 161.155 14.3651C161.403 14.1941 161.529 13.935 161.529 13.5851C161.529 13.2378 161.307 12.7917 160.866 12.2494L160.033 11.2129H150.031C149.596 11.8914 149.379 12.4898 149.379 13.008C149.379 13.529 149.534 13.927 149.849 14.2048C150.162 14.4827 150.568 14.6216 151.068 14.6216H153.173V15.594H143.321V14.6216C143.791 14.6216 144.282 14.5094 144.795 14.2796C145.308 14.0445 145.757 13.764 146.142 13.4355C146.532 13.1015 146.892 12.7596 147.221 12.4096C147.555 12.0624 147.809 11.7765 147.979 11.5548C148.156 11.3277 148.247 11.2075 148.247 11.1915L154.049 3.80773L153.483 3.11317C153.125 2.67239 152.748 2.35983 152.35 2.17284C151.949 1.98049 151.402 1.88432 150.704 1.88432H148.92V0.92262H161.839L172.898 14.6216H175.474ZM150.886 10.1336H159.178L154.936 4.88698L150.886 10.1336ZM164.596 14.6216H166.337L156.058 1.88432H154.316L164.596 14.6216Z" fill="white"/>
  <path d="M13.309 12.0499V3.9609H12.0053V14.9671C12.8735 14.6118 13.309 13.6394 13.309 12.0499ZM5.98933 3.09536H22.7657V3.9609H20.7568C20.073 3.9609 19.5333 4.17995 19.1433 4.61272C18.7506 5.04014 18.5556 5.56908 18.5556 6.19419V12.285C18.5556 13.0063 18.4167 13.626 18.1389 14.1443C17.861 14.6652 17.3962 15.1274 16.7497 15.5334C15.4675 16.3161 13.2689 16.7088 10.1567 16.7088C7.04186 16.7088 4.22086 16.2146 1.69371 15.2235V16.26H0.699951V10.9493H1.69371C1.85667 11.342 2.17456 11.8629 2.64473 12.5094C3.12024 13.1585 3.59842 13.7008 4.0766 14.1336C4.55211 14.569 5.18256 14.9617 5.96795 15.309C6.75068 15.659 7.52271 15.8326 8.28673 15.8326C9.86019 15.8326 10.6482 15.1033 10.6482 13.6421V6.19419C10.6482 5.56908 10.4479 5.04014 10.0499 4.61272C9.65716 4.17995 9.12288 3.9609 8.44701 3.9609H5.98933V3.09536Z" fill="white"/>
  <path d="M38.8486 4.76297H46.7987V5.63919C45.8503 5.63919 45.0676 5.82085 44.4478 6.18416C43.7132 6.60624 43.3472 7.51719 43.3472 8.91967V12.6062C43.3472 13.819 43.072 14.6632 42.5244 15.1387C41.8192 15.7585 40.9055 16.1645 39.7889 16.3569C39.0836 16.4637 38.1166 16.5171 36.8931 16.5171C35.6749 16.5171 34.5209 16.4343 33.431 16.2714C32.3464 16.1057 31.5289 15.9161 30.9733 15.6943C30.4176 15.4753 29.9822 15.1895 29.6696 14.8395C29.3624 14.4842 29.1781 14.177 29.114 13.9205C29.0552 13.6641 29.0285 13.3622 29.0285 13.0123V7.413C29.0285 6.23224 28.4247 5.63919 27.2226 5.63919H26.496V4.76297H37.983V5.63919H37.6625C36.4577 5.63919 35.8566 6.23224 35.8566 7.413V13.2153C35.8566 14.0648 36.0062 14.6899 36.3054 15.096C36.6099 15.502 37.1095 15.705 37.8014 15.705C39.447 15.705 40.5743 15.4753 41.1887 15.0105C41.8085 14.5403 42.1184 13.8992 42.1184 13.0871V8.91967C42.1184 8.23045 42.0008 7.64809 41.7657 7.17792C41.536 6.70241 41.2341 6.36314 40.8574 6.16279C40.1949 5.81551 39.5244 5.63919 38.8486 5.63919V4.76297ZM31.2938 5.63919H30.3001V12.478C30.3001 13.3328 30.5165 13.9499 30.9519 14.3266C31.0427 14.4067 31.1576 14.4735 31.2938 14.5296V5.63919Z" fill="white"/>
  <path d="M72.7004 15.3838V16.26H62.4102L58.9481 11.8255C58.5981 11.3634 58.3069 11.131 58.0719 11.131C57.8421 11.131 57.7085 11.2111 57.6658 11.366C57.6284 11.5236 57.6124 11.8362 57.6124 12.3064V13.5886C57.6124 14.7854 58.2134 15.3838 59.4182 15.3838H60.7326V16.26H46.7879V15.3838H48.9357C50.1538 15.3838 50.7629 14.7854 50.7629 13.5886V7.64745C50.7629 7.15057 50.5839 6.72314 50.2286 6.36517C49.8706 6.00988 49.4406 5.83089 48.9357 5.83089H46.7879V4.95467C57.1876 4.94132 63.3746 4.9333 65.3488 4.9333C69.4307 4.9333 71.4716 6.00186 71.4716 8.13898C71.4716 8.74539 71.2793 9.25563 70.8946 9.66702C70.5099 10.0811 69.9649 10.3883 69.2597 10.586C68.0682 10.9146 66.615 11.0882 64.9 11.1096V11.2378C65.1831 11.4809 65.6319 11.7267 66.2463 11.9751C66.8661 12.2262 67.5607 12.4106 68.33 12.5308L70.6168 15.3838H72.7004ZM52.0238 15.3838H53.0496V5.83089H52.0238V15.3838ZM57.6124 6.65368V9.09C57.6124 9.37584 57.8849 9.62161 58.4352 9.82731C58.9908 10.0357 59.6453 10.1372 60.4013 10.1372C61.1627 10.1372 61.8172 9.97691 62.3675 9.65634C62.9231 9.33043 63.2009 8.80149 63.2009 8.07487C63.2009 7.34825 62.8937 6.7926 62.282 6.40791C61.6676 6.02323 61.0558 5.83089 60.4441 5.83089H58.4245C58.1894 5.83089 57.9917 5.91371 57.8368 6.07666C57.6872 6.23427 57.6124 6.42661 57.6124 6.65368ZM59.9418 11.131L63.2651 15.3838H64.5366C63.0834 13.4978 61.9828 12.0793 61.2348 11.131H59.9418ZM65.5732 9.47468C65.8563 9.05527 66.0006 8.61716 66.0006 8.16035C66.0006 7.6982 65.8563 7.26009 65.5732 6.84602C65.2873 6.42661 64.9427 6.12742 64.5366 5.94843L64.4618 6.01255C64.753 6.54148 64.9 7.25742 64.9 8.16035C64.9 9.06596 64.753 9.78189 64.4618 10.3082L64.5366 10.3616C64.9427 10.1906 65.2873 9.89676 65.5732 9.47468Z" fill="white"/>
  <path d="M85.7773 13.61C85.7773 14.7934 86.3864 15.3838 87.6045 15.3838H89.7523V16.26H74.9742V15.3838H77.122C78.3401 15.3838 78.9492 14.7934 78.9492 13.61V7.64744C78.9492 7.16392 78.7702 6.73917 78.4149 6.37585C78.057 6.01255 77.6269 5.83089 77.122 5.83089H74.9742V4.95467H89.7523V5.83089H87.6045C87.097 5.83089 86.6669 6.01255 86.3116 6.37585C85.9536 6.73917 85.7773 7.16392 85.7773 7.64744V13.61ZM81.2359 5.83089H80.2101V15.3838H81.2359V5.83089ZM77.9341 3.61897H76.8441V2.89235C78.3187 2.89235 79.422 2.71871 80.1567 2.36875C80.8886 2.01346 81.5351 1.44445 82.0908 0.659058H87.9892C87.9465 0.838042 87.8423 1.07045 87.6793 1.35362C87.5137 1.63145 87.3321 1.88256 87.1344 2.10161C86.934 2.31533 86.6428 2.53705 86.2581 2.76412C85.8788 2.98585 85.4567 3.1488 84.9866 3.25566C83.9314 3.49876 81.5805 3.61897 77.9341 3.61897ZM80.8512 2.74275V2.82823C82.4033 2.75076 83.5173 2.21648 84.1958 1.22539H82.9029C82.7373 1.56733 82.4487 1.87722 82.0373 2.15504C81.6233 2.42753 81.2279 2.62254 80.8512 2.74275Z" fill="white"/>
  <path d="M93.3067 4.95466H106.514C109.362 4.95466 111.787 5.36072 113.791 6.17282C114.817 6.57888 115.629 7.14521 116.227 7.87183C116.826 8.59311 117.125 9.42659 117.125 10.3723C117.125 11.3126 116.906 12.1434 116.473 12.862C116.046 13.5753 115.511 14.1416 114.87 14.561C114.229 14.9831 113.484 15.3197 112.637 15.5762C111.189 16.033 109.669 16.26 108.074 16.26H93.3067V15.3838H95.4332C96.6433 15.3838 97.2497 14.7854 97.2497 13.5886V7.62607C97.2497 7.14254 97.0707 6.72313 96.7154 6.36516C96.3575 6.00987 95.93 5.83088 95.4332 5.83088H93.3067V4.95466ZM99.5258 15.4052V5.83088H98.532V15.4052H99.5258ZM105.456 15.3838H107.016C107.679 15.3838 108.227 15.1487 108.662 14.6786C109.445 13.8451 109.837 12.496 109.837 10.6287C109.837 7.43105 108.571 5.83088 106.044 5.83088C105.438 5.83088 104.954 5.98048 104.591 6.27968C104.233 6.57353 104.056 6.96089 104.056 7.44441V13.7062C104.056 14.8255 104.521 15.3838 105.456 15.3838ZM112.06 13.3215C112.522 12.488 112.755 11.5904 112.755 10.6287C112.755 9.66702 112.522 8.77477 112.06 7.94663C111.603 7.11316 110.954 6.46133 110.115 5.99117L110.04 6.0446C110.994 7.3055 111.472 8.83354 111.472 10.6287C111.472 12.4239 110.994 13.9493 110.04 15.2022L110.115 15.2663C110.954 14.7961 111.603 14.1496 112.06 13.3215Z" fill="white"/>
</svg>