<svg xmlns="http://www.w3.org/2000/svg" width="169" height="16" viewBox="0 0 169 16" fill="none">
  <path d="M135.839 3.59229V11.1454C135.839 11.9591 136.056 12.5558 136.49 12.933C136.93 13.3127 137.508 13.5013 138.226 13.5013H140.861V14.4415H122.283V13.5013H124.949C125.664 13.5013 126.24 13.3127 126.674 12.933C127.108 12.5558 127.325 11.9591 127.325 11.1454V3.59229C127.325 2.93875 127.09 2.37304 126.623 1.89774C126.16 1.42244 125.602 1.18479 124.949 1.18479H122.283V0.254855H140.861V1.18479H138.226C137.57 1.18479 137.01 1.42244 136.542 1.89774C136.072 2.37304 135.839 2.93875 135.839 3.59229ZM130.208 13.5013V1.18479H128.793V13.5013H130.208Z" fill="#1D1F2E"/>
  <path d="M169 13.5013V14.4415H152.602V13.5013H154.224C154.602 13.5013 154.911 13.4186 155.154 13.2533C155.395 13.088 155.516 12.8374 155.516 12.499C155.516 12.1632 155.302 11.7318 154.875 11.2074L154.069 10.2052H144.398C143.977 10.8613 143.768 11.4399 143.768 11.941C143.768 12.4448 143.918 12.8296 144.222 13.0983C144.525 13.3669 144.917 13.5013 145.4 13.5013H147.436V14.4415H137.909V13.5013C138.364 13.5013 138.839 13.3928 139.335 13.1706C139.831 12.9433 140.265 12.6721 140.637 12.3543C141.014 12.0314 141.363 11.7008 141.681 11.3624C142.003 11.0266 142.249 10.7502 142.414 10.5358C142.585 10.3162 142.673 10.2 142.673 10.1845L148.283 3.04466L147.735 2.37304C147.389 1.94682 147.025 1.64459 146.64 1.46377C146.253 1.27778 145.723 1.18479 145.049 1.18479H143.323V0.254855H155.816L166.51 13.5013H169ZM145.225 9.16156H153.243L149.141 4.08825L145.225 9.16156ZM158.481 13.5013H160.166L150.226 1.18479H148.541L158.481 13.5013Z" fill="#1D1F2E"/>
  <path d="M12.1925 11.0146V3.19276H10.9319V13.8354C11.7714 13.4918 12.1925 12.5515 12.1925 11.0146ZM5.11464 2.35582H21.3368V3.19276H19.3943C18.733 3.19276 18.2112 3.40458 17.8341 3.82305C17.4544 4.23636 17.2658 4.74782 17.2658 5.35228V11.2419C17.2658 11.9393 17.1315 12.5386 16.8628 13.0397C16.5942 13.5435 16.1447 13.9903 15.5196 14.383C14.2797 15.1398 12.1537 15.5196 9.14436 15.5196C6.1324 15.5196 3.40459 15.0417 0.960933 14.0833V15.0856H0V9.95029H0.960933C1.1185 10.33 1.4259 10.8337 1.88053 11.4589C2.34034 12.0866 2.80272 12.6109 3.2651 13.0294C3.72491 13.4505 4.33453 13.8302 5.09398 14.166C5.85084 14.5044 6.59737 14.6723 7.33615 14.6723C8.85763 14.6723 9.61966 13.9671 9.61966 12.5541V5.35228C9.61966 4.74782 9.42592 4.23636 9.04103 3.82305C8.66131 3.40458 8.14468 3.19276 7.49114 3.19276H5.11464V2.35582Z" fill="#1D1F2E"/>
  <path d="M36.8884 3.96834H44.5758V4.81562C43.6588 4.81562 42.902 4.99127 42.3027 5.34258C41.5923 5.75072 41.2384 6.63157 41.2384 7.98773V11.5525C41.2384 12.7252 40.9723 13.5415 40.4428 14.0013C39.7608 14.6006 38.8774 14.9932 37.7976 15.1792C37.1157 15.2826 36.1806 15.3342 34.9975 15.3342C33.8196 15.3342 32.7037 15.2541 31.6497 15.0966C30.601 14.9364 29.8105 14.753 29.2732 14.5386C28.7359 14.3268 28.3149 14.0504 28.0127 13.712C27.7156 13.3684 27.5374 13.0714 27.4754 12.8234C27.4185 12.5754 27.3927 12.2835 27.3927 11.9451V6.53083C27.3927 5.38908 26.8089 4.81562 25.6465 4.81562H24.9439V3.96834H36.0514V4.81562H35.7415C34.5765 4.81562 33.9952 5.38908 33.9952 6.53083V12.1414C33.9952 12.9629 34.1399 13.5673 34.4292 13.96C34.7237 14.3526 35.2067 14.5489 35.8758 14.5489C37.467 14.5489 38.5571 14.3268 39.1512 13.8773C39.7505 13.4227 40.0502 12.8027 40.0502 12.0174V7.98773C40.0502 7.32128 39.9365 6.75815 39.7092 6.30351C39.487 5.84371 39.1951 5.51565 38.8309 5.32192C38.1903 4.98611 37.5419 4.81562 36.8884 4.81562V3.96834ZM29.5832 4.81562H28.6223V11.4285C28.6223 12.2551 28.8315 12.8518 29.2526 13.216C29.3404 13.2935 29.4515 13.3581 29.5832 13.4123V4.81562Z" fill="#1D1F2E"/>
  <path d="M69.622 14.2383V15.0856H59.6717L56.3239 10.7976C55.9855 10.3507 55.7039 10.126 55.4766 10.126C55.2545 10.126 55.1253 10.2035 55.084 10.3533C55.0478 10.5057 55.0323 10.8079 55.0323 11.2625V12.5025C55.0323 13.6597 55.6135 14.2383 56.7785 14.2383H58.0495V15.0856H44.5654V14.2383H46.6423C47.8202 14.2383 48.4091 13.6597 48.4091 12.5025V6.75753C48.4091 6.27706 48.2361 5.86376 47.8925 5.51762C47.5464 5.17406 47.1305 5.00099 46.6423 5.00099H44.5654V4.15371C54.6216 4.1408 60.6042 4.13305 62.5131 4.13305C66.4602 4.13305 68.4337 5.16631 68.4337 7.23283C68.4337 7.8192 68.2477 8.31259 67.8758 8.71039C67.5038 9.11078 66.9768 9.40784 66.2949 9.599C65.1428 9.91672 63.7376 10.0846 62.0792 10.1053V10.2293C62.353 10.4644 62.787 10.702 63.3811 10.9422C63.9804 11.1851 64.652 11.3633 65.3959 11.4795L67.6071 14.2383H69.622ZM49.6284 14.2383H50.6203V5.00099H49.6284V14.2383ZM55.0323 5.7966V8.15243C55.0323 8.42883 55.2958 8.66648 55.8279 8.86538C56.3652 9.06687 56.9981 9.16503 57.7291 9.16503C58.4653 9.16503 59.0982 9.01004 59.6303 8.70006C60.1676 8.38492 60.4363 7.87345 60.4363 7.17083C60.4363 6.46822 60.1392 5.93092 59.5477 5.55895C58.9536 5.18697 58.362 5.00099 57.7705 5.00099H55.8176C55.5903 5.00099 55.3991 5.08106 55.2493 5.23863C55.1047 5.39104 55.0323 5.57703 55.0323 5.7966ZM57.2848 10.126L60.4983 14.2383H61.7279C60.3226 12.4146 59.2584 11.043 58.5351 10.126H57.2848ZM62.7301 8.5244C63.0039 8.11885 63.1434 7.69521 63.1434 7.25349C63.1434 6.80661 63.0039 6.38297 62.7301 5.98258C62.4537 5.57703 62.1205 5.28771 61.7279 5.11464L61.6555 5.17664C61.9371 5.6881 62.0792 6.38039 62.0792 7.25349C62.0792 8.12918 61.9371 8.82147 61.6555 9.33035L61.7279 9.38201C62.1205 9.21669 62.4537 8.93254 62.7301 8.5244Z" fill="#1D1F2E"/>
  <path d="M82.2668 12.5231C82.2668 13.6675 82.8558 14.2383 84.0337 14.2383H86.1106V15.0856H71.8206V14.2383H73.8974C75.0753 14.2383 75.6643 13.6675 75.6643 12.5231V6.75753C75.6643 6.28998 75.4912 5.87925 75.1477 5.52795C74.8015 5.17664 74.3856 5.00098 73.8974 5.00098H71.8206V4.15371H86.1106V5.00098H84.0337C83.5429 5.00098 83.127 5.17664 82.7835 5.52795C82.4373 5.87925 82.2668 6.28998 82.2668 6.75753V12.5231ZM77.8755 5.00098H76.8836V14.2383H77.8755V5.00098ZM74.6827 2.86213H73.6288V2.15952C75.0547 2.15952 76.1215 1.99161 76.8319 1.65322C77.5397 1.30966 78.1648 0.759447 78.7021 0H84.4057C84.3644 0.173071 84.2636 0.397805 84.106 0.67162C83.9459 0.940267 83.7702 1.18308 83.5791 1.3949C83.3853 1.60155 83.1038 1.81596 82.7318 2.03552C82.365 2.24993 81.9569 2.4075 81.5022 2.51082C80.4819 2.74589 78.2087 2.86213 74.6827 2.86213ZM77.5035 2.01486V2.09752C79.0043 2.02261 80.0815 1.50598 80.7376 0.547628H79.4874C79.3272 0.878272 79.0482 1.17792 78.6504 1.44657C78.25 1.71005 77.8677 1.89862 77.5035 2.01486Z" fill="#1D1F2E"/>
  <path d="M89.5475 4.1537H102.319C105.072 4.1537 107.418 4.54634 109.355 5.33162C110.347 5.72426 111.132 6.27189 111.711 6.97451C112.29 7.67196 112.579 8.4779 112.579 9.39234C112.579 10.3016 112.367 11.105 111.949 11.7998C111.535 12.4895 111.019 13.0372 110.399 13.4427C109.779 13.8509 109.058 14.1763 108.239 14.4243C106.839 14.866 105.369 15.0856 103.827 15.0856H89.5475V14.2383H91.6037C92.7739 14.2383 93.3603 13.6597 93.3603 12.5025V6.73686C93.3603 6.26931 93.1872 5.86375 92.8436 5.51761C92.4975 5.17405 92.0842 5.00098 91.6037 5.00098H89.5475V4.1537ZM95.5611 14.259V5.00098H94.6002V14.259H95.5611ZM101.296 14.2383H102.804C103.445 14.2383 103.974 14.011 104.396 13.5564C105.152 12.7504 105.532 11.4459 105.532 9.64032C105.532 6.54829 104.308 5.00098 101.864 5.00098C101.278 5.00098 100.81 5.14563 100.459 5.43495C100.113 5.71909 99.9421 6.09365 99.9421 6.5612V12.6161C99.9421 13.6985 100.392 14.2383 101.296 14.2383ZM107.681 12.2441C108.128 11.4382 108.353 10.5703 108.353 9.64032C108.353 8.71038 108.128 7.84761 107.681 7.04683C107.24 6.24089 106.612 5.6106 105.801 5.15597L105.728 5.20763C106.651 6.42688 107.113 7.90444 107.113 9.64032C107.113 11.3762 106.651 12.8512 105.728 14.0627L105.801 14.1247C106.612 13.67 107.24 13.0449 107.681 12.2441Z" fill="#1D1F2E"/>
</svg>