<svg width="68" height="87" viewBox="0 0 68 87" fill="none" xmlns="http://www.w3.org/2000/svg">
<g id="Logo iMAGEM">
<g id="Clip path group">
<mask id="mask0_2287_4125" style="mask-type:luminance" maskUnits="userSpaceOnUse" x="0" y="17" width="68" height="70">
<g id="43c606387b">
<path id="Vector" d="M0 17.3384H67.3469V86.9998H0V17.3384Z" fill="white"/>
</g>
</mask>
<g mask="url(#mask0_2287_4125)">
<g id="Group">
<path id="Vector_2" fill-rule="evenodd" clip-rule="evenodd" d="M33.6734 17.395C43.8149 19.1053 55.0419 23.5347 67.3494 30.6831C62.5539 59.41 51.3295 78.1849 33.6734 87.0001C16.02 78.1849 4.7955 59.41 0 30.6831C12.3075 23.5347 23.532 19.1053 33.6734 17.395Z" fill="#282A3B"/>
</g>
</g>
</g>
<path id="Vector_3" fill-rule="evenodd" clip-rule="evenodd" d="M66.0774 31.2849C61.2896 59.0926 50.4133 77.0943 33.6739 85.7047C16.937 77.0943 6.06076 59.0926 1.27295 31.2849C13.1529 24.4616 23.9498 20.2396 33.6739 18.5703C43.4006 20.2396 54.1975 24.4616 66.0774 31.2849Z" fill="#AB8E63"/>
<path id="Vector_4" fill-rule="evenodd" clip-rule="evenodd" d="M33.6737 83.7432C18.2887 75.4477 7.95008 58.5752 3.19043 32.1884C14.4124 25.8542 24.5666 21.9394 33.6737 20.3315C42.7808 21.9394 52.9376 25.8542 64.1595 32.1884C59.3999 58.5752 49.0613 75.4477 33.6737 83.7432Z" fill="#282A3B"/>
<path id="Vector_5" d="M23.2606 33.9164L23.2811 33.942L23.2683 34.1571C22.7665 43.2949 9.11483 43.9913 8.39794 33.896L8.3877 33.7551L8.44402 33.6246C8.62325 33.2072 8.84599 32.8257 9.10715 32.4827L11.0376 28.0687C11.8979 27.6513 12.7505 27.2519 13.5954 26.8653L12.136 30.4165C13.1653 30.0836 14.2944 29.9582 15.4337 30.0145L15.7768 25.9001C16.4476 25.6107 17.1107 25.3342 17.7713 25.0654L17.6305 30.1912L20.0295 30.3934L18.6444 24.7172C19.5328 24.3639 20.4136 24.031 21.2866 23.7161L29.6359 27.7128C29.9175 27.5975 30.1966 27.4951 30.4731 27.403L30.6754 20.9356C31.4435 20.7615 32.2039 20.6053 32.9592 20.4619L36.6332 27.7384L36.7408 27.7896L37.1171 27.5259L35.1969 20.6207C37.7163 21.1276 40.3099 21.8086 42.9854 22.6664L43.2952 23.1503L43.669 22.8865C44.4602 23.1477 45.259 23.4242 46.0655 23.7161L44.8877 25.644C45.8965 27.2314 46.7363 28.573 47.4097 29.6663L48.8793 29.4794L50.0212 25.2472C50.587 25.4802 51.158 25.7208 51.7315 25.9692L50.7407 30.035L50.2235 29.4538L50.4565 30.3781L50.7355 30.0606L50.2619 32.009C51.1759 31.5123 52.1693 31.1487 53.1832 30.9234L52.9681 26.512C53.7132 26.8448 54.4634 27.1905 55.2187 27.5463L55.572 30.652C56.5296 30.6495 57.4718 30.7775 58.3423 31.054L57.3258 28.5654C58.2117 29.0032 59.1052 29.4589 60.0065 29.93L61.4044 33.1304C61.6681 33.4761 61.8909 33.8576 62.0701 34.2749L62.1239 34.4055L62.1162 34.5437C61.5888 41.9508 54.0896 43.5305 49.9546 40.2712C49.9341 40.8319 49.8932 41.3798 49.8369 41.9175C53.2549 44.5879 54.8064 48.2645 54.4941 52.868L54.4915 52.9115L53.9718 55.2209L54.6708 58.4188L53.662 61.376L53.8771 63.0607C48.6258 72.4801 41.8666 79.3264 33.6735 83.743C27.585 80.4607 22.2877 75.8341 17.8123 69.8071C18.0427 69.5434 18.3013 69.3411 18.588 69.2336C18.7084 68.7395 18.821 68.253 18.9311 67.7794C19.8042 64.0336 20.4622 60.9407 21.3097 58.7107C22.1213 56.5677 23.1915 54.9905 24.9761 54.5553C25.7672 53.3212 26.9603 52.7477 28.0536 52.6529C28.3762 51.7235 28.8754 51.0271 29.4848 50.6482C29.5258 50.067 29.8893 49.578 30.4552 49.3322L30.2273 48.2005C27.0499 45.2536 25.8773 43.1157 26.6019 40.6757C25.9311 39.1907 25.7723 37.7723 26.4508 36.1055L26.2178 35.0763L23.2606 33.9164ZM22.1034 30.5675L24.9684 30.8108L21.0818 26.7757L22.1034 30.5675Z" fill="#AB8E63"/>
<path id="Vector_6" d="M19.0643 69.7256C19.2154 69.106 19.3562 68.5018 19.4945 67.9129C34.6926 63.6935 45.8479 63.4912 52.9631 67.2984L52.725 68.2816C47.5813 76.0266 41.224 81.8206 33.6736 85.7046C27.4135 82.4837 21.9728 77.9494 17.3643 72.0786C17.7432 70.6397 18.414 69.7256 19.0643 69.7256Z" fill="#100F0D"/>
<path id="Vector_7" fill-rule="evenodd" clip-rule="evenodd" d="M53.5338 64.9426L52.9654 67.293C36.5972 67.5926 25.6006 67.7948 19.4942 67.9101C21.225 60.48 22.093 55.6384 25.3395 55.07C26.1101 53.7002 27.4082 53.1856 28.4836 53.2189C28.8215 51.9695 29.4437 51.2346 30.0812 50.9914C29.9557 50.4 30.3347 49.829 31.1284 49.7522L30.7546 47.9011C27.3852 44.8082 26.466 42.8419 27.2213 40.6374C26.5019 39.1422 26.3354 37.8006 27.0549 36.1594L26.7118 34.6488L16.6011 30.6829L26.4507 31.5175L18.0656 22.815L29.6203 28.3479C32.5135 27.101 34.974 27.1087 38.2128 29.3157L34.9919 17.7225L33.2202 13.5543C31.4433 12.3868 30.3654 11.3063 29.9916 10.3129C29.6741 9.13771 30.3936 8.43362 29.0263 5.03607C29.3874 4.45231 29.9225 4.50864 30.7341 4.84148L33.8935 3.5818C34.7922 3.45635 36.0135 3.69958 35.9341 4.6469C36.4846 4.62386 36.7585 4.98486 36.8277 5.87842C37.3397 5.94755 37.8083 6.60043 37.7519 7.25843C38.3818 7.42742 38.7326 8.23904 38.6839 8.92521C39.0398 11.1015 38.177 13.2291 38.1462 16.2554C44.6751 26.2817 48.2416 31.9656 48.8407 33.3072C49.4194 36.5588 49.5499 39.516 49.2248 42.1788C52.6607 44.7391 54.2251 48.2877 53.9179 52.8272L53.3802 55.2185L54.0715 58.3831L53.073 61.3147L53.5338 64.9426Z" fill="#100F0D"/>
<path id="Vector_8" fill-rule="evenodd" clip-rule="evenodd" d="M31.0034 28.8982L31.3286 18.5161L36.4672 28.6934L46.8288 21.3581L40.8965 31.0771L50.2622 29.8891L40.9631 33.5273L31.0034 28.8982Z" fill="#100F0D"/>
<path id="Vector_9" d="M32.521 1.78467H34.6307V16.5322H32.521V1.78467Z" fill="#100F0D"/>
<path id="Vector_10" d="M31.533 15.9686C31.533 14.709 32.5494 13.6899 33.804 13.6899C35.0585 13.6899 36.075 14.709 36.075 15.9686C36.075 17.2258 35.0585 18.2448 33.804 18.2448C32.5494 18.2448 31.533 17.2258 31.533 15.9686Z" fill="#100F0D"/>
<g id="Clip path group_2">
<mask id="mask1_2287_4125" style="mask-type:luminance" maskUnits="userSpaceOnUse" x="31" y="0" width="5" height="4">
<g id="f3b84a3ff2">
<path id="Vector_11" d="M31.4094 0H35.9975V3.7304H31.4094V0Z" fill="white"/>
</g>
</mask>
<g mask="url(#mask1_2287_4125)">
<g id="Group_2">
<path id="Vector_12" d="M31.5867 1.65911C31.5867 0.747629 32.4802 0.0102539 33.5812 0.0102539C34.6821 0.0102539 35.5757 0.747629 35.5757 1.65911C35.5757 2.57058 34.6821 3.30796 33.5812 3.30796C32.4802 3.30796 31.5867 2.57058 31.5867 1.65911Z" fill="#100F0D"/>
</g>
</g>
</g>
<path id="Vector_13" fill-rule="evenodd" clip-rule="evenodd" d="M38.0029 36.7736C34.4159 35.3833 32.3599 34.3208 31.8402 33.522L30.6471 33.6423C29.9251 34.7509 29.1237 35.6266 28.2378 36.2692L28.2967 37.1013C27.7513 38.7809 28.2199 39.5643 28.417 40.4477C28.3786 43.072 28.8779 44.1217 30.6061 44.3394C31.1054 44.4034 31.0081 43.9169 32.2217 43.7607C34.0216 43.5329 36.0135 44.6927 38.154 43.1411C37.56 46.0625 33.1536 44.452 31.8095 45.7091C32.3804 49.8415 33.0743 52.6604 33.8961 54.1608C35.5911 52.3532 37.158 49.5752 39.1371 47.9443C39.0577 46.4824 39.0987 44.4418 39.2575 41.8251C38.963 41.9531 38.6737 41.9147 38.3946 41.7048C38.9502 41.4564 39.2575 41.1492 39.3163 40.7779C38.1412 39.3902 37.7033 38.0538 38.0029 36.7736Z" fill="#AB8E63"/>
<path id="Vector_14" fill-rule="evenodd" clip-rule="evenodd" d="M41.7206 41.5668C41.5772 39.5416 41.7948 36.8225 42.2045 33.4044C40.064 29.7355 37.8519 24.5636 35.5706 17.8914L35.3428 12.2228C35.4503 11.6391 35.8625 10.976 36.5794 10.2309L34.1138 10.702C33.6094 10.6457 33.2177 9.98 33.5608 9.61131L36.1928 8.97123C36.3823 8.71775 36.3234 8.57438 36.0161 8.54621L32.9975 9.19398C32.552 9.12997 32.3549 8.82017 32.4061 8.26714L35.4631 7.39663C35.5834 7.06122 35.4426 6.9204 35.0381 6.97161L32.0451 7.7013C31.6201 7.61681 31.4229 7.29933 31.4562 6.74886L34.4825 5.85019C34.6822 5.63 34.5772 5.49942 34.1701 5.46102L31.2616 6.2496C30.9006 6.2368 30.7086 5.93724 30.6804 5.35092L34.4287 4.08356C35.097 4.07844 35.4401 4.38056 35.4554 4.98736C35.9393 5.16146 36.1902 5.52759 36.2082 6.08318C36.7791 6.2752 37.0633 6.7207 37.0608 7.42223C37.7239 7.80116 38.0542 8.40027 38.0567 9.21702C38.0106 11.0425 37.7418 13.2777 37.2451 15.9251L47.6861 33.0358C47.9652 42.0558 48.9816 49.5755 45.9323 49.2017C43.6126 46.2957 41.8127 44.0324 41.7206 41.5668Z" fill="#AB8E63"/>
<path id="Vector_15" fill-rule="evenodd" clip-rule="evenodd" d="M40.3815 36.8839C34.8998 32.1576 30.683 31.4458 27.7335 34.7486L27.7002 32.4879C29.9072 28.7447 37.2093 29.1927 40.5402 34.5489L40.3815 36.8839Z" fill="#AB8E63"/>
<path id="Vector_16" fill-rule="evenodd" clip-rule="evenodd" d="M27.8562 30.9233C31.5559 27.8304 36.6458 28.7111 40.7398 32.9357L40.1407 31.5685C36.2054 27.221 30.2245 27.1417 27.8562 30.9233Z" fill="#AB8E63"/>
<path id="Vector_17" fill-rule="evenodd" clip-rule="evenodd" d="M31.3149 50.6177C31.4174 52.7018 31.9934 54.3916 33.038 55.682C30.8746 60.9204 27.6101 66.7452 23.2448 73.1511C22.6457 65.4215 23.0169 60.6055 24.356 58.7109C23.9745 61.2456 24.1819 64.0415 24.9781 67.1062C24.5685 62.3081 24.8962 58.5624 25.9639 55.8715C25.4851 58.5649 25.7104 61.1176 26.6372 63.5269C26.2276 57.6202 26.8011 54.6553 28.3603 54.6323C28.3091 56.3067 28.5754 57.7072 29.1591 58.8363C28.9236 54.8499 29.2334 52.4586 30.0809 51.6674C29.8632 53.5262 30.0681 54.8653 30.6928 55.682C30.4342 53.0858 30.6416 51.396 31.3149 50.6177Z" fill="#AB8E63"/>
<path id="Vector_18" fill-rule="evenodd" clip-rule="evenodd" d="M41.1623 43.833C42.6729 48.3059 44.7033 51.2247 47.2508 52.5945L50.9428 50.1289C50.8762 52.8044 49.9929 55.1906 48.298 57.285C46.4238 56.6398 44.8057 55.0165 43.4436 52.4178C44.4012 55.1701 45.5123 57.9046 46.685 59.1796L52.1794 56.2352C52.1257 58.7239 50.9966 61.0512 48.7972 63.2147L45.9655 62.5388C44.9414 61.8244 43.4641 58.6752 41.5336 53.0937C42.486 58.5063 43.4308 62.1906 44.3679 64.1415L47.9344 65.8672L51.5035 62.7794C50.7943 67.0526 49.6678 69.7077 48.1213 70.7472L44.2424 69.1982C42.2505 65.4883 40.8756 60.2037 40.1126 53.3421C39.9948 61.1511 40.8193 66.6865 42.5833 69.9458L46.9512 74.3265C45.794 75.2303 44.7468 76.2801 43.8072 77.4783L38.8888 72.5471L38.0797 55.8717C37.0991 63.2224 37.0991 69.5182 38.0797 74.7515L40.2381 79.3832C39.0347 79.1681 38.1156 81.2445 37.2655 82.0766L35.3094 60.5007C34.4773 72.798 34.252 80.4303 34.6284 83.3926L30.7546 80.9322C32.4137 76.6308 33.1972 71.2592 33.0999 64.8175C31.9938 69.5054 30.6266 75.3123 29.3541 80.9501L26.3252 80.0053C26.1511 79.0401 26.6632 76.7127 27.8614 73.0259C26.4277 75.279 25.488 77.1122 25.04 78.5178L23.4807 76.5207C30.5575 62.9945 35.8394 51.45 39.6261 48.8897C39.5212 50.0828 39.7874 51.153 40.425 52.1054L40.2381 46.4855C40.937 48.8205 41.7179 50.8355 42.5833 52.5304L41.1623 43.833Z" fill="#AB8E63"/>
<path id="Vector_19" fill-rule="evenodd" clip-rule="evenodd" d="M29.6536 5.3125C30.8825 6.9972 31.1718 8.5718 30.5164 10.0312C30.0683 9.0429 30.7827 7.95476 29.6536 5.3125Z" fill="#AB8E63"/>
<path id="Vector_20" fill-rule="evenodd" clip-rule="evenodd" d="M31.4817 38.3125C31.6763 38.4277 31.9861 38.4277 32.406 38.3125C32.662 38.7938 32.9513 39.1676 33.2739 39.4339C32.831 39.4518 32.4111 39.5031 32.0193 39.5824L31.177 39.4339C31.3332 39.2061 31.433 38.8348 31.4817 38.3125Z" fill="#100F0D"/>
<path id="Vector_21" fill-rule="evenodd" clip-rule="evenodd" d="M33.8863 40.7453L32.6906 40.2793L32.2502 40.4969L31.7305 40.3151L30.9265 40.8835L30.6833 40.8195L30.6475 41.3034L31.052 41.0576L31.5513 40.9783C32.0428 41.0807 32.7188 41.0423 33.1643 40.9015L34.0988 41.1421L33.9605 40.5072L33.8863 40.7453Z" fill="#100F0D"/>
<path id="Vector_22" fill-rule="evenodd" clip-rule="evenodd" d="M33.5067 41.6387C32.6029 41.951 31.9218 42.0509 31.1768 41.7795L30.6826 42.3223L31.2869 42.1866C32.101 42.4938 32.6822 42.4554 33.3044 42.1712L34.0238 42.2045L33.5067 41.6387Z" fill="#100F0D"/>
<path id="Vector_23" fill-rule="evenodd" clip-rule="evenodd" d="M30.2707 31.0158V32.4599C30.1503 32.6314 29.9634 32.6903 29.71 32.6391C29.8508 32.529 29.9327 32.4035 29.9583 32.2627L29.9404 31.2258C30.0786 30.9698 30.1913 30.9006 30.2707 31.0158Z" fill="#100F0D"/>
<path id="Vector_24" fill-rule="evenodd" clip-rule="evenodd" d="M31.2103 30.6701L31.282 32.0398L30.8672 32.3496C31.1923 32.3317 31.4484 32.2267 31.6327 32.027L31.5892 30.5241C31.4279 30.4191 31.3024 30.4652 31.2103 30.6701Z" fill="#100F0D"/>
<path id="Vector_25" fill-rule="evenodd" clip-rule="evenodd" d="M32.6984 30.5398L32.5986 31.9249L32.2632 32.1323C32.5039 32.2859 32.7368 32.2859 32.957 32.1323L33.1158 30.5551C33.0031 30.358 32.8623 30.3529 32.6984 30.5398Z" fill="#100F0D"/>
<path id="Vector_26" fill-rule="evenodd" clip-rule="evenodd" d="M34.0526 30.7137L33.8811 32.1603C34.0501 32.4009 34.2805 32.4675 34.575 32.3625C34.4265 32.2908 34.3445 32.1936 34.3317 32.0758L34.5314 30.8699C34.4034 30.5601 34.2447 30.5063 34.0526 30.7137Z" fill="#100F0D"/>
<path id="Vector_27" fill-rule="evenodd" clip-rule="evenodd" d="M35.3124 31.1155L35.105 32.5365C35.2356 32.813 35.4532 32.9333 35.7553 32.8949C35.5761 32.6978 35.5044 32.5442 35.5402 32.4341L35.7553 31.3357C35.7143 31.0976 35.5658 31.0233 35.3124 31.1155Z" fill="#100F0D"/>
<path id="Vector_28" fill-rule="evenodd" clip-rule="evenodd" d="M36.6512 31.7683L36.3926 33.1893C36.5001 33.4069 36.6947 33.5222 36.9789 33.5324C36.856 33.3941 36.7997 33.2764 36.8074 33.174L37.0506 32.0551C36.9738 31.8323 36.8406 31.7376 36.6512 31.7683Z" fill="#100F0D"/>
<path id="Vector_29" fill-rule="evenodd" clip-rule="evenodd" d="M37.9621 32.5212L37.6165 33.9422C37.6549 34.1624 37.8418 34.3109 38.1823 34.3877C38.0671 34.2238 38.0235 34.0856 38.0517 33.9704L38.3538 32.7952C38.3026 32.4316 38.172 32.3394 37.9621 32.5212Z" fill="#100F0D"/>
<path id="Vector_30" fill-rule="evenodd" clip-rule="evenodd" d="M39.027 33.5556L38.6353 34.6975C38.7069 34.928 38.8862 35.0893 39.1704 35.1789C39.0449 34.9894 38.9963 34.8435 39.027 34.7411L39.3573 33.845C39.3317 33.5044 39.2216 33.4071 39.027 33.5556Z" fill="#100F0D"/>
<path id="Vector_31" fill-rule="evenodd" clip-rule="evenodd" d="M29.1339 31.7812L29.0904 33.0307C28.9034 33.233 28.7114 33.32 28.5117 33.2893L28.7268 32.9948V32.0552C28.8113 31.7505 28.947 31.6583 29.1339 31.7812Z" fill="#100F0D"/>
<path id="Vector_32" fill-rule="evenodd" clip-rule="evenodd" d="M39.8641 34.3824L39.4724 35.5243C39.5313 35.7829 39.7105 35.9416 40.0075 36.0031C39.8437 35.8213 39.7976 35.6754 39.8641 35.5653L40.1944 34.6692C40.1381 34.3594 40.028 34.2646 39.8641 34.3824Z" fill="#100F0D"/>
<path id="Vector_33" fill-rule="evenodd" clip-rule="evenodd" d="M31.7637 20.6875L34.7618 27.3981C33.7198 27.1805 32.7468 27.1421 31.8405 27.2829L31.7637 20.6875Z" fill="#AB8E63"/>
<path id="Vector_34" fill-rule="evenodd" clip-rule="evenodd" d="M20.3137 24.4819L28.3941 29.2467C27.7796 29.7946 27.3828 30.3476 27.2061 30.9084L20.3137 24.4819Z" fill="#AB8E63"/>
<path id="Vector_35" fill-rule="evenodd" clip-rule="evenodd" d="M33.3689 0.67334C33.0642 1.52849 33.246 2.23514 33.9142 2.79329L33.8374 3.37705L33.2946 3.75598L33.3305 2.90595C32.2756 1.96631 32.2884 1.22125 33.3689 0.67334Z" fill="#AB8E63"/>
<path id="Vector_36" fill-rule="evenodd" clip-rule="evenodd" d="M33.4972 12.5459L33.4204 14.4738H34.1399V12.0518L33.4972 12.5459Z" fill="#AB8E63"/>
<path id="Vector_37" fill-rule="evenodd" clip-rule="evenodd" d="M22.6919 34.1264C22.2259 42.5883 9.63676 43.1797 8.97363 33.855C11.0168 29.0928 19.3916 29.8225 22.6919 34.1264Z" fill="#100F0D"/>
<path id="Vector_38" d="M16.0605 15.4515C16.0605 14.8728 16.5393 14.4043 17.1308 14.4043C17.7248 14.4043 18.2035 14.8728 18.2035 15.4515C18.2035 16.0301 17.7248 16.4986 17.1308 16.4986C16.5393 16.4986 16.0605 16.0301 16.0605 15.4515Z" fill="#100F0D"/>
<path id="Vector_39" d="M21.3072 33.1971L17.2312 16.4987L10.4258 33.064L9.08936 33.9678L17.3362 15.1084L22.4492 34.0651L21.3072 33.1971Z" fill="#100F0D"/>
<path id="Vector_40" fill-rule="evenodd" clip-rule="evenodd" d="M10.7563 33.1535C14.5533 30.8979 18.2812 31.3946 21.9373 34.6436C20.9029 37.0555 18.952 38.5814 16.0921 39.2215L17.1674 36.1363C16.5709 34.7793 14.433 33.7834 10.7563 33.1535Z" fill="#AB8E63"/>
<path id="Vector_41" d="M17.4462 15.9765L17.0212 31.3461L15.9126 31.213L17.2849 14.8115L17.4462 15.9765Z" fill="#100F0D"/>
<path id="Vector_42" fill-rule="evenodd" clip-rule="evenodd" d="M47.822 34.7744C48.288 43.2388 60.8771 43.8277 61.5403 34.503C59.4971 29.7433 51.1223 30.473 47.822 34.7744Z" fill="#100F0D"/>
<path id="Vector_43" d="M52.3103 16.1019C52.3103 15.5232 52.7891 15.0547 53.3805 15.0547C53.9745 15.0547 54.4533 15.5232 54.4533 16.1019C54.4533 16.6805 53.9745 17.149 53.3805 17.149C52.7891 17.149 52.3103 16.6805 52.3103 16.1019Z" fill="#100F0D"/>
<path id="Vector_44" d="M48.0652 34.7155L53.1782 15.7588L61.425 34.6156L60.0859 33.7937L53.2806 17.149L49.138 34.188L48.0652 34.7155Z" fill="#100F0D"/>
<path id="Vector_45" fill-rule="evenodd" clip-rule="evenodd" d="M59.7581 33.8039C55.9611 31.5483 52.2333 32.045 48.5771 35.294C49.6115 37.7033 51.5599 39.2293 54.4224 39.8719L53.347 36.7867C53.941 35.4297 56.0789 34.4338 59.7581 33.8039Z" fill="#AB8E63"/>
<path id="Vector_46" d="M53.3577 16.332L55.1397 31.9398L53.8185 32.1369L53.0684 16.6239L53.3577 16.332Z" fill="#100F0D"/>
<path id="Vector_47" fill-rule="evenodd" clip-rule="evenodd" d="M39.2831 38.9813C37.7188 38.884 35.7499 38.2004 33.6555 37.527C33.1716 37.2633 32.6672 36.9894 32.552 36.8537L31.6559 36.9842L30.9569 37.8496C28.9906 39.0965 27.8282 39.4985 27.7104 39.2501V38.7586C29.9405 38.925 31.1182 36.5746 31.1182 36.5746C31.7122 36.3032 32.2602 36.2341 32.7594 36.3698L34.1727 37.0867C36.1032 37.6832 37.6932 38.0186 38.9375 38.0903L39.2831 38.9813Z" fill="#100F0D"/>
<path id="Vector_48" fill-rule="evenodd" clip-rule="evenodd" d="M33.2484 34.2314C31.9145 34.2647 30.386 33.96 29.1826 35.1454L29.7561 34.2621C30.77 33.9395 31.8633 33.7219 32.9873 33.8704L33.2484 34.2314Z" fill="#100F0D"/>
<path id="Vector_49" fill-rule="evenodd" clip-rule="evenodd" d="M27.9865 36.8021C28.8595 36.5743 29.8606 36.1134 30.9897 35.417C29.9759 36.4718 28.9492 37.2271 27.9097 37.6778L27.9865 36.8021Z" fill="#100F0D"/>
<path id="Vector_50" fill-rule="evenodd" clip-rule="evenodd" d="M35.7393 35.9033C36.5714 36.2592 38.0845 36.6868 40.2813 37.1835L40.3555 38.5712L37.9002 37.9593L35.7393 35.9033Z" fill="#AB8E63"/>
<path id="Vector_51" fill-rule="evenodd" clip-rule="evenodd" d="M38.8995 36.9968C37.394 36.8944 35.0846 36.2031 32.811 35.4683C34.826 36.5948 38.454 37.5908 40.3563 37.7009L38.8995 36.9968Z" fill="#100F0D"/>
<path id="Vector_52" fill-rule="evenodd" clip-rule="evenodd" d="M39.8335 50.062C37.1733 52.0642 34.4927 56.4961 31.7915 63.3578C35.0815 57.0824 37.8288 53.0704 40.0332 51.3217L39.8335 50.062Z" fill="#100F0D"/>
<path id="Vector_53" fill-rule="evenodd" clip-rule="evenodd" d="M29.3538 63.7496C29.0491 63.4628 28.6753 62.2518 28.2298 60.1113C28.1428 62.4438 28.1428 64.2488 28.2298 65.5341L29.3538 63.7496Z" fill="#100F0D"/>
<path id="Vector_54" fill-rule="evenodd" clip-rule="evenodd" d="M49.6729 43.3643L50.0006 47.0691L51.8952 49.2479L51.4728 53.2215L52.945 49.0149L49.6729 43.3643Z" fill="#AB8E63"/>
<path id="Vector_55" fill-rule="evenodd" clip-rule="evenodd" d="M17.0671 14.9419C27.9946 15.8406 39.5237 16.2272 53.5466 15.9302L53.6363 16.327C39.8642 18.7158 28.2711 18.3702 16.9211 15.4693L17.0671 14.9419Z" fill="#100F0D"/>
<path id="Vector_56" d="M32.688 16.0019C32.688 15.4796 33.1079 15.0571 33.6276 15.0571C34.1499 15.0571 34.5724 15.4796 34.5724 16.0019C34.5724 16.5242 34.1499 16.9467 33.6276 16.9467C33.1079 16.9467 32.688 16.5242 32.688 16.0019Z" fill="#AB8E63"/>
<path id="Vector_57" d="M45.1902 48.2671C45.6639 44.3754 45.8175 39.5364 45.6485 33.7526L40.5586 21.3555L47.6865 33.0357C47.9656 42.0557 48.9821 49.5754 45.9327 49.2016C45.6793 48.8841 45.4309 48.5718 45.1902 48.2671Z" fill="#182B37"/>
<path id="Vector_58" d="M35.8365 44.9824L34.0007 46.4418C33.7473 47.3584 34.1543 49.399 35.222 52.5636C34.7842 53.1371 34.3438 53.685 33.8957 54.1612C33.0739 52.6608 32.38 49.8419 31.8091 45.7096C32.5797 44.9901 34.3515 45.2103 35.8365 44.9824Z" fill="#182B37"/>
<path id="Vector_59" d="M42.1634 75.8318L40.4019 70.8826L40.8678 64.6841C41.2749 66.8322 41.8484 68.5886 42.5833 69.9456L46.9512 74.3263C45.7939 75.2301 44.7467 76.2798 43.8071 77.478L42.1634 75.8318ZM49.9135 68.4503L47.2226 68.7934L45.3587 64.6201L47.9343 65.867L51.5034 62.7792C51.1066 65.1782 50.5766 67.0678 49.9135 68.4503ZM51.0554 60.3034L46.4673 60.7617L45.5814 57.5536C45.9398 58.2141 46.3085 58.7697 46.6849 59.1794L52.1794 56.235C52.1486 57.6432 51.7748 59.0002 51.0554 60.3034ZM45.6941 55.6L47.6527 55.7229L50.807 51.6802C50.4947 53.7361 49.66 55.6026 48.2979 57.2847C47.3659 56.9647 46.498 56.4014 45.6941 55.6Z" fill="#182B37"/>
</g>
</svg>
