<svg xmlns="http://www.w3.org/2000/svg" width="23" height="20" viewBox="0 0 23 20" fill="none">
  <g clip-path="url(#clip0_2301_8798)">
    <path d="M19.5357 8.5807L10.4817 15.7207C10.2597 15.8994 9.99226 16.0184 9.71711 16.0611C9.44196 16.1038 9.17289 16.068 8.94772 15.9587C8.72272 15.8542 8.55059 15.6826 8.45499 15.4676C8.35939 15.2526 8.34502 15.0046 8.41386 14.7579L9.34403 11.2228L10.755 10.7887L13.0363 10.0869C13.2088 10.0338 13.362 9.92307 13.4621 9.77902C13.5622 9.63497 13.6011 9.46942 13.5702 9.31878C13.5393 9.16814 13.4411 9.04475 13.2972 8.97576C13.1533 8.90677 12.9756 8.89783 12.8031 8.95091L10.5218 9.65273L9.08546 10.0818L6.90974 7.50222C6.73406 7.32857 6.63445 7.0982 6.62566 6.84522C6.61688 6.59225 6.69938 6.33012 6.86095 6.09767C7.02252 5.86522 7.25457 5.6748 7.52272 5.55464C7.79087 5.43447 8.08087 5.39094 8.34975 5.43049L19.1071 6.49274C19.3606 6.50618 19.5919 6.58921 19.7717 6.73138C19.9516 6.87355 20.072 7.06851 20.1178 7.29171C20.1636 7.51492 20.1328 7.7564 20.0293 7.98577C19.9257 8.21513 19.754 8.42213 19.5357 8.5807Z" fill="#D2AE6D"/>
  </g>
  <defs>
    <clipPath id="clip0_2301_8798">
      <rect width="14.3788" height="15.8101" fill="white" transform="matrix(0.901676 0.432411 -0.570746 0.821127 9.49414 0.353516)"/>
    </clipPath>
  </defs>
</svg>