<svg xmlns="http://www.w3.org/2000/svg" width="78" height="78" viewBox="0 0 78 78" fill="none">
  <g clip-path="url(#clip0_2274_17740)">
    <path d="M66.5126 11.335C59.2125 4.02978 49.5054 0.00445708 39.1632 0C17.8514 0 0.50794 17.3379 0.499408 38.6487C0.496925 45.4608 2.27683 52.1104 5.65995 57.9718L0.174805 78L20.6709 72.6256C26.318 75.7054 32.6762 77.3282 39.1465 77.3308H39.163H39.1632C60.4715 77.3308 77.8175 59.9898 77.8266 38.68C77.8301 28.3518 73.8119 18.6407 66.5126 11.335ZM39.1632 70.8029H39.1506C33.3833 70.7998 27.7276 69.2514 22.7945 66.3242L21.6205 65.6283L9.4577 68.8172L12.705 56.9629L11.9401 55.7476C8.72305 50.6324 7.02471 44.7211 7.02713 38.6512C7.03419 20.9384 21.4494 6.52816 39.1753 6.52816C47.7591 6.53173 55.8269 9.8776 61.8946 15.9495C67.9619 22.0213 71.3008 30.093 71.2983 38.6773C71.2908 56.3907 56.875 70.8029 39.1632 70.8029Z" fill="#E0E0E0"/>
    <path d="M1.94824 75.7781L7.18283 56.6649C3.95342 51.0711 2.25514 44.7248 2.25718 38.2252C2.26565 17.8882 18.817 1.34277 39.1535 1.34277C49.0238 1.34723 58.2876 5.18847 65.2528 12.1602C72.2195 19.1318 76.0538 28.3987 76.0497 38.254C76.0413 58.5914 59.4889 75.1383 39.155 75.1383C39.1535 75.1383 39.156 75.1383 39.155 75.1383H39.1385C32.9638 75.1364 26.8965 73.5863 21.5077 70.6494L1.94824 75.7781Z" fill="url(#paint0_linear_2274_17740)"/>
    <path fill-rule="evenodd" clip-rule="evenodd" d="M29.6075 22.2408C28.8922 20.6505 28.1391 20.6186 27.4585 20.5908C26.9019 20.5669 26.2647 20.5684 25.6285 20.5684C24.9917 20.5684 23.9571 20.8077 23.0821 21.7633C22.2066 22.7189 19.7393 25.029 19.7393 29.7273C19.7393 34.4262 23.1617 38.9663 23.6387 39.604C24.1162 40.2407 30.2452 50.1906 39.9518 54.0184C48.0188 57.1996 49.6604 56.5668 51.4114 56.4076C53.1624 56.2484 57.0614 54.098 57.8573 51.8679C58.6532 49.6384 58.6532 47.7272 58.4144 47.3278C58.1756 46.9298 57.5389 46.691 56.5838 46.2135C55.6287 45.7359 50.9339 43.4253 50.0584 43.107C49.1829 42.7886 48.5462 42.6294 47.9094 43.5855C47.2727 44.5406 45.4436 46.691 44.8864 47.3278C44.3293 47.966 43.7722 48.0455 42.8171 47.568C41.862 47.089 38.7863 46.0816 35.1376 42.8283C32.2987 40.2973 30.382 37.1714 29.8249 36.2154C29.2677 35.2603 29.7652 34.7429 30.2442 34.2668C30.673 33.839 31.1993 33.1521 31.6769 32.5944C32.1534 32.0368 32.3126 31.6388 32.6309 31.0021C32.9493 30.3643 32.7901 29.8068 32.5513 29.3292C32.3126 28.8517 30.4566 24.1291 29.6075 22.2408Z" fill="white"/>
    <path d="M66.1955 11.2113C58.9791 3.9899 49.3834 0.0108684 39.16 0.00634766C18.0928 0.00634766 0.948455 17.1452 0.939987 38.2114C0.937504 44.9453 2.69697 51.5185 6.04125 57.3127L0.619141 77.1109L20.88 71.7982C26.4623 74.8425 32.7475 76.4468 39.1436 76.4493H39.1598H39.16C60.2237 76.4493 77.3705 59.3074 77.3795 38.2422C77.383 28.0327 73.4109 18.4331 66.1955 11.2113ZM39.16 69.9965H39.1476C33.4464 69.9935 27.8556 68.4629 22.9792 65.5693L21.8186 64.8813L9.79545 68.0336L13.0054 56.3154L12.2493 55.1141C9.0692 50.0576 7.39034 44.2141 7.39283 38.2139C7.39977 20.7045 21.6495 6.4597 39.172 6.4597C47.6574 6.4632 55.6324 9.77067 61.6305 15.7728C67.6282 21.775 70.9287 29.7539 70.9262 38.2399C70.9187 55.7498 56.6684 69.9965 39.16 69.9965Z" fill="white"/>
  </g>
  <defs>
    <linearGradient id="paint0_linear_2274_17740" x1="38.999" y1="75.7781" x2="38.999" y2="1.3429" gradientUnits="userSpaceOnUse">
      <stop stop-color="#20B038"/>
      <stop offset="1" stop-color="#60D66A"/>
    </linearGradient>
    <clipPath id="clip0_2274_17740">
      <rect width="78" height="78" fill="white"/>
    </clipPath>
  </defs>
</svg>