<svg width="35" height="35" viewBox="0 0 35 35" fill="none" xmlns="http://www.w3.org/2000/svg">
<path d="M11.564 17.2051H12.9742M22.846 17.2051H17.205" stroke="#282A3B" stroke-width="1.5" stroke-linecap="round"/>
<path d="M22.846 11.564H21.4358M17.205 11.564H11.564" stroke="#282A3B" stroke-width="1.5" stroke-linecap="round"/>
<path d="M11.564 22.8462H18.6152" stroke="#282A3B" stroke-width="1.5" stroke-linecap="round"/>
<path d="M4.5127 20.0256V14.3846C4.5127 9.06617 4.5127 6.40698 6.16491 4.75475C7.81714 3.10254 10.4763 3.10254 15.7947 3.10254H18.6153C23.9336 3.10254 26.5929 3.10254 28.2451 4.75475C29.1662 5.67592 29.5738 6.91008 29.7542 8.74356M29.8973 14.3846V20.0256C29.8973 25.344 29.8973 28.0033 28.2451 29.6554C26.5929 31.3077 23.9336 31.3077 18.6153 31.3077H15.7947C10.4763 31.3077 7.81714 31.3077 6.16491 29.6554C5.24376 28.7342 4.83617 27.5001 4.65582 25.6666" stroke="#282A3B" stroke-width="1.5" stroke-linecap="round"/>
</svg>
