<svg width="35" height="35" viewBox="0 0 35 35" fill="none" xmlns="http://www.w3.org/2000/svg">
<path d="M22.564 8.13384V15.7705" stroke="white" stroke-width="1.5" stroke-linecap="round" stroke-linejoin="round"/>
<path d="M31.8002 17.4552C31.8345 18.0812 31.7408 18.7076 31.5248 19.2961C31.3089 19.8848 30.9752 20.4231 30.5442 20.8784C30.1132 21.3337 29.5938 21.6964 29.018 21.9442C28.4421 22.1921 27.8217 22.3198 27.1947 22.3198C26.5678 22.3198 25.9474 22.1921 25.3715 21.9442C24.7956 21.6964 24.2763 21.3337 23.8453 20.8784C23.4143 20.4231 23.0806 19.8848 22.8646 19.2961C22.6487 18.7076 22.555 18.0812 22.5893 17.4552V9.68044C22.555 9.05445 22.6487 8.42791 22.8646 7.83935C23.0806 7.25079 23.4143 6.71249 23.8453 6.25719C24.2763 5.80189 24.7956 5.43926 25.3715 5.19137C25.9474 4.94363 26.5678 4.81575 27.1947 4.81575C27.8217 4.81575 28.4421 4.94363 29.018 5.19137C29.5938 5.43926 30.1132 5.80189 30.5442 6.25719C30.9752 6.71249 31.3089 7.25079 31.5248 7.83935C31.7408 8.42791 31.8345 9.05445 31.8002 9.68044V17.4552Z" stroke="white" stroke-width="1.5" stroke-linecap="round" stroke-linejoin="round"/>
<path d="M22.5639 9.68054C22.5675 9.07306 22.4515 8.47083 22.2223 7.90809C21.9932 7.34549 21.6555 6.83344 21.2285 6.4012C20.8015 5.9691 20.2935 5.62524 19.7336 5.38951C19.1737 5.15364 18.5729 5.03033 17.9653 5.02673H12.2757C10.9492 5.0277 9.65855 5.45897 8.59784 6.25578C7.53713 7.05259 6.76338 8.17199 6.39287 9.44578L4.32145 16.461C4.15656 16.9274 4.10546 17.4263 4.17216 17.9164C4.239 18.4065 4.42184 18.8735 4.70535 19.2787C4.989 19.6839 5.36531 20.0156 5.80293 20.2461C6.24055 20.4766 6.72693 20.5992 7.22145 20.6039H14.8443V27.8953C14.8425 28.1601 14.8929 28.4226 14.9925 28.6679C15.0922 28.9132 15.2391 29.1365 15.4251 29.325C15.611 29.5135 15.8322 29.6636 16.0763 29.7666C16.3201 29.8696 16.582 29.9235 16.8467 29.9253C17.2824 29.9233 17.7055 29.7793 18.0518 29.5152C18.3983 29.251 18.6491 28.8811 18.7662 28.4615L22.5639 15.812" stroke="white" stroke-width="1.5" stroke-linecap="round" stroke-linejoin="round"/>
</svg>
