<svg width="35" height="36" viewBox="0 0 35 36" fill="none" xmlns="http://www.w3.org/2000/svg">
<path d="M12.436 27.4848V19.8481" stroke="black" stroke-width="1.5" stroke-linecap="round" stroke-linejoin="round"/>
<path d="M3.19977 18.1635C3.16549 17.5375 3.25918 16.9111 3.47515 16.3225C3.6911 15.7338 4.02477 15.1955 4.45579 14.7402C4.88683 14.2849 5.40615 13.9222 5.98203 13.6744C6.55793 13.4266 7.17831 13.2988 7.80527 13.2988C8.43222 13.2988 9.05258 13.4266 9.62847 13.6744C10.2044 13.9222 10.7237 14.2849 11.1547 14.7402C11.5857 15.1955 11.9194 15.7338 12.1354 16.3225C12.3513 16.9111 12.445 17.5375 12.4107 18.1635V25.9382C12.445 26.5642 12.3513 27.1907 12.1354 27.7793C11.9194 28.3679 11.5857 28.9062 11.1547 29.3615C10.7237 29.8168 10.2044 30.1794 9.62847 30.4273C9.05258 30.675 8.43222 30.8029 7.80527 30.8029C7.17831 30.8029 6.55793 30.675 5.98203 30.4273C5.40615 30.1794 4.88683 29.8168 4.45579 29.3615C4.02477 28.9062 3.6911 28.3679 3.47515 27.7793C3.25918 27.1907 3.16549 26.5642 3.19977 25.9382V18.1635Z" stroke="black" stroke-width="1.5" stroke-linecap="round" stroke-linejoin="round"/>
<path d="M12.4361 25.9381C12.4325 26.5456 12.5485 27.1478 12.7777 27.7106C13.0068 28.2732 13.3445 28.7852 13.7715 29.2175C14.1985 29.6496 14.7065 29.9934 15.2664 30.2291C15.8263 30.465 16.4271 30.5883 17.0347 30.5919H22.7243C24.0508 30.591 25.3415 30.1597 26.4022 29.3629C27.4629 28.5661 28.2366 27.4467 28.6071 26.1729L30.6786 19.1576C30.8434 18.6913 30.8945 18.1923 30.8278 17.7022C30.761 17.2121 30.5782 16.7451 30.2946 16.3399C30.011 15.9348 29.6347 15.6031 29.1971 15.3726C28.7594 15.1421 28.2731 15.0195 27.7786 15.0148H20.1557V7.72333C20.1575 7.45855 20.1071 7.19607 20.0075 6.95076C19.9078 6.70545 19.7609 6.48216 19.5749 6.29366C19.389 6.10515 19.1678 5.95508 18.9237 5.85207C18.6799 5.74908 18.418 5.69517 18.1533 5.69336C17.7176 5.69533 17.2945 5.83934 16.9482 6.1035C16.6017 6.36766 16.3509 6.73758 16.2338 7.15717L12.4361 19.8067" stroke="black" stroke-width="1.5" stroke-linecap="round" stroke-linejoin="round"/>
</svg>
