<svg xmlns="http://www.w3.org/2000/svg" width="56" height="57" viewBox="0 0 56 57" fill="none">
  <path d="M13.125 35.6251C13.125 34.6414 12.3415 33.8438 11.375 33.8438C10.4085 33.8438 9.625 34.6414 9.625 35.6251H13.125ZM44.975 35.6251C44.975 34.6414 44.1915 33.8438 43.225 33.8438C42.2585 33.8438 41.475 34.6414 41.475 35.6251H44.975ZM28.6799 12.9706C29.2742 12.1949 29.1384 11.0756 28.3764 10.4706C27.6143 9.86552 26.5146 10.0039 25.9201 10.7796L28.6799 12.9706ZM16.8201 22.6546C16.2257 23.4302 16.3616 24.5495 17.1237 25.1547C17.8858 25.7596 18.9854 25.6213 19.5799 24.8457L16.8201 22.6546ZM28.6799 10.7796C28.0854 10.0039 26.9857 9.86552 26.2236 10.4706C25.4616 11.0756 25.3258 12.1949 25.9201 12.9706L28.6799 10.7796ZM35.0201 24.8457C35.6146 25.6213 36.7143 25.7596 37.4764 25.1547C38.2384 24.5495 38.3742 23.4302 37.7799 22.6546L35.0201 24.8457ZM29.05 11.8751C29.05 10.8913 28.2665 10.0938 27.3 10.0938C26.3335 10.0938 25.55 10.8913 25.55 11.8751H29.05ZM25.55 38.0001C25.55 38.9838 26.3335 39.7813 27.3 39.7813C28.2665 39.7813 29.05 38.9838 29.05 38.0001H25.55ZM9.625 35.6251V38.0001H13.125V35.6251H9.625ZM9.625 38.0001C9.625 42.8762 13.4227 46.9063 18.2 46.9063V43.3438C15.4387 43.3438 13.125 40.9942 13.125 38.0001H9.625ZM18.2 46.9063H36.4V43.3438H18.2V46.9063ZM36.4 46.9063C41.1773 46.9063 44.975 42.8762 44.975 38.0001H41.475C41.475 40.9942 39.1613 43.3438 36.4 43.3438V46.9063ZM44.975 38.0001V35.6251H41.475V38.0001H44.975ZM25.9201 10.7796L16.8201 22.6546L19.5799 24.8457L28.6799 12.9706L25.9201 10.7796ZM25.9201 12.9706L35.0201 24.8457L37.7799 22.6546L28.6799 10.7796L25.9201 12.9706ZM25.55 11.8751V38.0001H29.05V11.8751H25.55Z" fill="#D2AE6D"/>
</svg>