<svg xmlns="http://www.w3.org/2000/svg" width="30" height="30" viewBox="0 0 30 30" fill="none">
  <path d="M29.6984 28.2321L26.1649 24.6986C27.1452 23.4113 27.7354 21.81 27.7354 20.073C27.7322 18.0423 26.9238 16.0958 25.4874 14.6604C24.0511 13.225 22.1041 12.4178 20.0734 12.4159C18.0435 12.4191 16.0977 13.2268 14.6624 14.6621C13.2271 16.0974 12.4193 18.0432 12.4162 20.073C12.4181 22.104 13.2256 24.0514 14.6616 25.4878C16.0975 26.9241 18.0447 27.7323 20.0758 27.7348C21.8152 27.7348 23.4166 27.1447 24.7015 26.1643L28.235 29.6954C28.3304 29.7919 28.444 29.8685 28.5692 29.9208C28.6944 29.973 28.8287 30 28.9644 30C29.1 30 29.2343 29.973 29.3595 29.9208C29.4847 29.8685 29.5983 29.7919 29.6937 29.6954C29.7903 29.5998 29.8671 29.486 29.9197 29.3606C29.9723 29.2352 29.9996 29.1007 30 28.9647C30.0004 28.8288 29.974 28.6941 29.9223 28.5683C29.8705 28.4426 29.7945 28.3283 29.6984 28.2321ZM14.484 20.073C14.4859 18.5905 15.0756 17.1694 16.1239 16.1211C17.1721 15.0729 18.5933 14.4832 20.0758 14.4813C21.5588 14.4813 22.9811 15.0704 24.0298 16.119C25.0784 17.1677 25.6676 18.59 25.6676 20.073C25.6676 21.556 25.0784 22.9782 24.0298 24.0269C22.9811 25.0755 21.5588 25.6647 20.0758 25.6647C18.5935 25.6621 17.1727 25.0722 16.1245 24.0241C15.0764 22.976 14.4865 21.5552 14.484 20.073ZM23.2762 7.75936C23.2762 8.33042 22.8122 8.79204 22.2411 8.79204H11.8975C11.6236 8.79204 11.3609 8.68324 11.1672 8.48957C10.9736 8.29591 10.8648 8.03324 10.8648 7.75936C10.8648 7.48548 10.9736 7.22281 11.1672 7.02914C11.3609 6.83548 11.6236 6.72668 11.8975 6.72668H22.2411C22.8122 6.72668 23.2762 7.18829 23.2762 7.75936ZM3.45026 27.9299H10.346C10.6084 27.9477 10.8543 28.0645 11.0338 28.2566C11.2134 28.4488 11.3133 28.702 11.3133 28.9649C11.3133 29.2279 11.2134 29.4811 11.0338 29.6733C10.8543 29.8654 10.6084 29.9822 10.346 30H3.45026C1.55143 30 0 28.4534 0 26.5498V8.14721C0 7.68322 0.166564 7.2335 0.464001 6.87659L5.68461 0.666244C5.85968 0.457895 6.07816 0.290317 6.32477 0.175235C6.57138 0.0601531 6.84016 0.000346563 7.1123 0H23.9639C25.8651 0 27.4141 1.54664 27.4141 3.45019V10.8598C27.4141 11.1343 27.3051 11.3976 27.111 11.5917C26.9168 11.7858 26.6536 11.8948 26.379 11.8948C26.1045 11.8948 25.8412 11.7858 25.6471 11.5917C25.453 11.3976 25.344 11.1343 25.344 10.8598V3.44781C25.3433 3.08303 25.1983 2.73333 24.9406 2.47516C24.6829 2.217 24.3334 2.07137 23.9686 2.07011H8.7946V8.05203C8.7902 8.48812 8.61322 8.90471 8.3024 9.21062C7.99157 9.51654 7.57221 9.68687 7.1361 9.68433H2.07254V26.5522C2.07254 27.3112 2.6912 27.9299 3.45026 27.9299ZM6.72682 2.64118L2.54606 7.61421H6.72682V2.64118ZM9.31333 18.1313C9.58785 18.1313 9.85113 18.0223 10.0452 17.8282C10.2394 17.6341 10.3484 17.3708 10.3484 17.0963C10.3484 16.8218 10.2394 16.5585 10.0452 16.3644C9.85113 16.1703 9.58785 16.0612 9.31333 16.0612H5.69174C5.41722 16.0612 5.15395 16.1703 4.95983 16.3644C4.76572 16.5585 4.65666 16.8218 4.65666 17.0963C4.65666 17.3708 4.76572 17.6341 4.95983 17.8282C5.15395 18.0223 5.41722 18.1313 5.69174 18.1313H9.31333ZM9.31333 22.8831C9.58753 22.8831 9.85051 22.7742 10.0444 22.5803C10.2383 22.3864 10.3472 22.1234 10.3472 21.8492C10.3472 21.575 10.2383 21.3121 10.0444 21.1182C9.85051 20.9243 9.58753 20.8154 9.31333 20.8154H5.69174C5.41754 20.8154 5.15457 20.9243 4.96067 21.1182C4.76678 21.3121 4.65786 21.575 4.65786 21.8492C4.65786 22.1234 4.76678 22.3864 4.96067 22.5803C5.15457 22.7742 5.41754 22.8831 5.69174 22.8831H9.31333ZM10.346 11.3928H5.69174C5.41754 11.3928 5.15457 11.5017 4.96067 11.6956C4.76678 11.8895 4.65786 12.1524 4.65786 12.4266C4.65786 12.7008 4.76678 12.9638 4.96067 13.1577C5.15457 13.3516 5.41754 13.4605 5.69174 13.4605H10.346C10.6202 13.4605 10.8832 13.3516 11.0771 13.1577C11.271 12.9638 11.3799 12.7008 11.3799 12.4266C11.3799 12.1524 11.271 11.8895 11.0771 11.6956C10.8832 11.5017 10.6202 11.3928 10.346 11.3928Z" fill="white"/>
</svg>